<?xml version="1.0" encoding="UTF-8"?>
<svg xmlns="http://www.w3.org/2000/svg" xmlns:xlink="http://www.w3.org/1999/xlink" viewBox="0 0 99.65 61.69">
  <defs>
    <style>
      .cls-1 {
        fill: #ffe5d1;
      }

      .cls-2 {
        fill: #fff;
        opacity: .44;
      }

      .cls-2, .cls-3, .cls-4, .cls-5, .cls-6, .cls-7 {
        mix-blend-mode: overlay;
      }

      .cls-8 {
        fill: url(#linear-gradient);
      }

      .cls-9 {
        fill: #8c473e;
      }

      .cls-10 {
        isolation: isolate;
      }

      .cls-3 {
        opacity: .3;
      }

      .cls-4 {
        fill: url(#linear-gradient-3);
      }

      .cls-4, .cls-5, .cls-6 {
        opacity: .22;
      }

      .cls-5 {
        fill: url(#linear-gradient-4);
      }

      .cls-6 {
        fill: url(#linear-gradient-5);
      }

      .cls-7 {
        fill: url(#linear-gradient-2);
        opacity: .53;
      }
    </style>
    <linearGradient id="linear-gradient" x1="78.69" y1="39.58" x2="-18.23" y2="27.87" gradientTransform="translate(76.43 -.02) rotate(-176.78) scale(1 -1)" gradientUnits="userSpaceOnUse">
      <stop offset="0" stop-color="#f7a97e"/>
      <stop offset="1" stop-color="#e1622f"/>
    </linearGradient>
    <linearGradient id="linear-gradient-2" x1="-56.7" y1="163.97" x2="-121.65" y2="139.86" gradientTransform="translate(-15.53 -130.32) rotate(-167.44) scale(1 -1)" gradientUnits="userSpaceOnUse">
      <stop offset="0" stop-color="#fff"/>
      <stop offset="1" stop-color="#fff" stop-opacity="0"/>
    </linearGradient>
    <linearGradient id="linear-gradient-3" x1="112.91" y1="-87.68" x2="98.25" y2="-91.32" gradientTransform="translate(172.7 109.15) rotate(171.75) scale(1 -1)" gradientUnits="userSpaceOnUse">
      <stop offset="0" stop-color="#000"/>
      <stop offset=".88" stop-color="#000" stop-opacity=".28"/>
      <stop offset="1" stop-color="#000" stop-opacity="0"/>
    </linearGradient>
    <linearGradient id="linear-gradient-4" x1="131.26" y1="-166.69" x2="122.44" y2="-170.09" gradientTransform="translate(237.65 169.53) rotate(165.05) scale(1 -1)" xlink:href="#linear-gradient-3"/>
    <linearGradient id="linear-gradient-5" x1="-140.2" y1="193.54" x2="-147.14" y2="190.87" gradientTransform="translate(-13.77 -181.1) rotate(-160.15) scale(1 -1)" xlink:href="#linear-gradient-3"/>
  </defs>
  <g class="cls-10">
    <g id="Layer_2" data-name="Layer 2">
      <g id="Layer_1-2" data-name="Layer 1">
        <g>
          <g>
            <path class="cls-8" d="M62.69,61.19c-1.96,0-3.99-.18-6.04-.53-16.07-2.76-19.84-9.93-19.99-10.24-.11-.23-.04-.5.17-.64.08-.05.18-.08.27-.08.14,0,.29.06.38.18.65.8,1.88,1.34,2.94,1.69-4.29-3.7-9.31-7.03-14.04-9.28-1.46-.69-2.8-1.24-4.08-1.68-2.9-1.03-5.55-1.55-7.87-1.55-1.32,0-2.54.17-3.63.51-7.44,2.29-8.06,3.43-8.08,3.48-.01.26-.22.42-.48.43h0c-.26,0-.46-.24-.49-.49-.19-2.22.09-4.25.51-5.93-.45,1.09-.66,1.92-.66,1.94-.05.22-.25.38-.48.38,0,0-.02,0-.03,0-.24-.01-.43-.19-.47-.43-.05-.38-1.2-9.35,4.29-16.76.23-.32.47-.62.72-.91,2.2-2.51,4.78-3.66,7.1-4.13-.21-.02-.4-.16-.45-.37-.06-.24.05-.48.27-.57,3.45-1.49,6.93-2.24,10.34-2.24s6.07.71,8.19,1.53c-1.73-1-3.02-1.27-3.04-1.28-.25-.05-.42-.29-.39-.54.03-.25.24-.44.49-.44h.01c6.4.16,11.81,2.99,16.25,5.74,1.08.67,2.11,1.34,3.13,2.01l1.58,1.02c1.48.95,3.18,1.45,4.92,1.45,1.89,0,3.78-.6,5.33-1.69,1.72-1.2,2.93-2.92,3.49-4.96.29-1.02.45-2.12.48-3.28.02-.86-.04-1.76-.17-2.69-.44-2.98-1.74-6.21-3.86-9.6-.1-.16-.1-.36,0-.51.09-.15.25-.24.43-.24,0,0,33.32,1.78,33.32,1.78.12,0,.23.06.32.14.27.26,6.49,6.45,5.73,19.96-.22,4.06-1.08,8.44-2.56,13.01-1.9,5.84-4.02,10.55-6.3,13.99-.01.02-.03.05-.04.07-3.98,5.99-7.49,6.63-8.82,6.63-.43,0-.67-.06-.72-.07-.16-.04-.29-.17-.34-.33-.05-.16-.02-.33.09-.46.03-.03.05-.06.08-.09-3.55,2.98-9.59,6.08-17.77,6.08Z"/>
            <path class="cls-9" d="M59.72.99l33.29,1.78s6.34,6.13,5.58,19.58c-.2,3.72-.96,8.01-2.54,12.88-2.1,6.46-4.25,10.88-6.27,13.9,0,0,0,.02,0,.02h0c-3.83,5.77-7.12,6.43-8.42,6.43-.38,0-.59-.06-.59-.06,1.98-2.4,2.55-4.29,2.61-4.51-1.28,2.62-8.29,9.69-20.68,9.69-1.86,0-3.85-.16-5.96-.52-15.71-2.7-19.44-9.6-19.63-9.97,1.42,1.74,5.15,2.35,5.15,2.35-4.37-4.03-10.02-8.02-15.66-10.7-1.39-.65-2.77-1.23-4.13-1.7-2.81-1-5.55-1.58-8.03-1.58-1.34,0-2.61.17-3.78.53-8.06,2.48-8.4,3.68-8.41,3.84-.48-5.54,2.01-9.82,2.27-10.24-2.45,2.24-3.4,6.18-3.4,6.18,0,0-1.23-9.06,4.19-16.4.23-.31.46-.6.7-.89,3.04-3.48,6.87-4.25,9.64-4.25,2.18,0,3.72.47,3.72.47-1.8-1.04-4.08-1.22-5.44-1.22-.66,0-1.11.04-1.18.05,3.75-1.62,7.17-2.2,10.14-2.2,7.32,0,11.98,3.53,12.45,3.9-3.42-3.87-7.21-4.63-7.21-4.63,6.14.15,11.37,2.8,16,5.67,1.07.67,2.11,1.34,3.12,2,.53.35,1.06.69,1.58,1.02,1.63,1.05,3.43,1.53,5.19,1.53,2.01,0,3.98-.63,5.61-1.78,1.72-1.2,3.07-2.99,3.68-5.23.29-1.04.47-2.16.5-3.4.02-.88-.04-1.8-.18-2.77-.42-2.83-1.61-6.08-3.93-9.79M59.72,0c-.35,0-.67.18-.85.49-.19.32-.18.71.01,1.03,2.08,3.33,3.35,6.49,3.79,9.41.13.89.19,1.77.17,2.6-.03,1.11-.19,2.18-.46,3.15-.53,1.94-1.67,3.56-3.3,4.69-1.47,1.03-3.26,1.6-5.04,1.6-1.65,0-3.26-.48-4.66-1.38l-.89-.58-.68-.44c-1.14-.75-2.17-1.41-3.14-2.01-4.5-2.79-9.98-5.66-16.5-5.82,0,0-.02,0-.03,0-.5,0-.93.38-.98.88,0,.08,0,.17,0,.25-1.3-.24-2.73-.39-4.27-.39-3.48,0-7.02.77-10.53,2.28-.44.19-.67.66-.58,1.12-2.17.58-4.5,1.78-6.51,4.09-.22.26-.49.59-.76.96C-1.09,29.47.08,38.64.14,39.02c.06.47.46.83.93.86.02,0,.03,0,.05,0,.05,0,.1,0,.15-.01-.09.99-.11,2.05,0,3.17.04.51.47.9.99.9,0,0,.01,0,.02,0,.42,0,.79-.28.92-.66.22-.22,1.52-1.3,7.77-3.22,1.05-.32,2.22-.49,3.49-.49,2.26,0,4.85.51,7.7,1.52,1.27.44,2.59.99,4.04,1.67,3.51,1.67,7.18,3.94,10.59,6.52-.07.03-.14.06-.21.1-.42.27-.57.82-.35,1.28.16.31,4.04,7.7,20.35,10.5,2.08.35,4.14.53,6.13.53,6.94,0,12-2.18,15.02-4,.82-.5,1.58-1.02,2.27-1.56.13.17.31.29.53.35.08.02.37.09.85.09,1.74,0,5.24-.88,9.18-6.79.05-.06.09-.12.13-.19,2.29-3.47,4.42-8.2,6.32-14.05,1.5-4.61,2.37-9.03,2.59-13.14.78-13.74-5.6-20.08-5.88-20.35-.17-.17-.4-.26-.64-.28L59.78,0s-.04,0-.05,0h0Z"/>
          </g>
          <path class="cls-1" d="M1.17,38.8s.96-3.95,3.41-6.2c-.13.21-2.78,4.57-2.29,10.27,0-.16.35-1.36,8.41-3.85,4.39-1.35,10.15.02,15.93,2.76-7.65-6.85-18.66-5.2-18.66-5.2,2.77-4.99,5.99-6.88,5.99-6.88-3.51,1.03-4.32,1.68-4.5,1.91,6.05-10.95,18.33-10.86,18.33-10.86-2.36-1.85-6.1-2.85-6.1-2.85,6.63-.76,19.25,3.85,19.25,3.85.1-1.93-4.15-3.94-4.15-3.94,2.76.26,6.83,1.83,10.5,3.5-5.38-3.5-11.56-7.48-19.12-7.67,0,0,3.81.76,7.24,4.66-.31-.25-9.37-7.44-22.63-1.73.21-.02,3.94-.38,6.62,1.17,0,0-8.64-2.67-14.06,4.66C-.06,29.75,1.17,38.8,1.17,38.8Z"/>
          <path class="cls-3" d="M1.17,38.8s.96-3.95,3.41-6.2c-.13.21-2.78,4.57-2.29,10.27,0-.16.35-1.36,8.41-3.85,4.39-1.35,10.15.02,15.93,2.76,5.65,2.68,11.3,6.67,15.67,10.7,0,0-3.75-.62-5.17-2.37.1.2,3.72,7.25,19.64,9.98,16.15,2.77,25.21-6.2,26.65-9.19,0,0-.5,1.98-2.62,4.53,0,0,7.99,2.18,15.29-20.29,1.58-4.87,2.34-9.16,2.54-12.88-1.55,7.81-5.03,18.83-12.83,26.52.2-.29,2.28-3.28,2.11-6.17,0,0-17.21,20.09-42.11,9.95,0,0,5.64.4,6.62-.96,0,0-8.24-2.54-20.32-10.34-12.09-7.8-26.45-5.26-26.45-5.26,0,0-1.58-2.54,1.24-6.9,0,0-3.26,1.94-4.56,4.27,0,0,.42-6.38,3.72-11.86-.24.28-.48.57-.71.88C-.06,29.75,1.17,38.8,1.17,38.8Z"/>
          <path class="cls-7" d="M65.47,29.2s-8.19,4.64-18.97-2.25-16.16-6.46-16.16-6.46c0,0,3.73,1.12,4.66,3.12,0,0-11.48-2.31-18.74,5.61,0,0,6.42-1.61,11.99.37,0,0-6.34.12-14.04,4.58,0,0,8.39-.85,20.14,6.42,11.75,7.26,25.93,6.96,25.93,6.96,0,0-2.27,3.81-5.34,4.66,0,0,14.21,1.58,21.3-6.47"/>
          <ellipse class="cls-2" cx="38.26" cy="19.96" rx="2.71" ry="6.97" transform="translate(10.46 52.96) rotate(-77.44)"/>
          <ellipse class="cls-2" cx="46.36" cy="26.37" rx="2.12" ry="5.46" transform="translate(10.54 65.89) rotate(-77.44)"/>
          <path class="cls-2" d="M5.36,22.41c.23-.31.47-.61.71-.88,5.43-6.22,13.35-3.78,13.35-3.78-2.68-1.55-6.41-1.19-6.62-1.17,13.26-5.72,22.32,1.48,22.63,1.73-3.43-3.9-7.24-4.66-7.24-4.66,6.14.15,11.37,2.81,16,5.67h0s0,0,0,0c.46.29.92.58,1.37.87.22.14.43.28.65.41.07.05.15.1.22.14.29.19.59.38.88.57h0c.48.31.95.62,1.42.92.06.04.13.08.19.12,5.43,3.47,12.73.72,14.46-5.5.29-1.04.47-2.17.5-3.4.6,1.81.63,4.22-1.15,7.08-2.17,3.51-5.32,4.94-9.01,4.62,4.43,2.16,8.39,2.39,12.33-2.66.99-1.28,1.54-2.67,1.75-4.11h0s-1.22,12.54-12.38,9.29c-6.08-1.77-7.74-3.64-10.17-5.75-.84-.53-2.38-1.86-2.38-1.86-1.81-1.25-4.31-2.58-8.35-4.03.26.11,2.39,1.1,3.36,4.25,0,0-10.95-6.54-20.43-4.19,0,0,4.52.84,5.72,3.45,0,0-16.5-7.27-21.24,14.41,0-.02.43-1.89,4.86-6.2-.1.19-1.79,3.48-2.95,11.63,0,0,9.83-3.83,18.69.67-4.33-1.53-8.47-2.08-11.81-1.05-8.06,2.49-8.41,3.69-8.41,3.85-.49-5.7,2.16-10.05,2.29-10.27-2.46,2.25-3.41,6.2-3.41,6.2,0,0-1.23-9.06,4.19-16.39Z"/>
          <path class="cls-3" d="M89.84,49.07v-.02s0,.02,0,.02h0Z"/>
          <path class="cls-3" d="M52.07,26.37c9.64,2.62,15.99-5.25,18.03-8.29-6.14,10.29-1.29,15.35-1.29,15.35-1.33-5.99,4.46-16.45,7.88-11.06,3.41,5.4-.36,12.27-.36,12.27,5.02-2.86,8.54-12.35,8.54-12.35-.18,14.36-10.02,20.92-10.02,20.92,11.8-3.15,15.11-14.84,15.11-14.84.19,8.56-4.24,13.08-4.5,13.34,8.59-4.06,9.26-15.8,9.26-15.8,1.47,12.95-4.57,22.64-4.89,23.14,2.01-3.02,4.17-7.44,6.27-13.9,1.58-4.87,2.34-9.16,2.54-12.88.77-13.45-5.58-19.58-5.58-19.58L59.78.91c2.32,3.71,3.51,6.96,3.93,9.79.15.97.2,1.89.18,2.77-.03,1.23-.21,2.36-.5,3.4-.62,2.25-1.96,4.03-3.68,5.23,3.38-.84,5.82-3.03,6.01-3.21-5.34,8.58-12.95,7.6-13.65,7.49Z"/>
          <path class="cls-4" d="M62.78,33.04s-2.01,1-7.07-1.33c0,0,.9,2.05,2.66,2.04,0,0-7.12-2.07-11.75.15,0,0,9.56-.87,12.73,1.9,0,0-3.06.91-6.51-.91,0,0,5.77,6.9,15.28.69"/>
          <path class="cls-5" d="M75.17,36.04s-1.3,1.52-6.26,1.38c0,0,1.45,1.36,2.89.74,0,0-6.55.79-9.58,4.22,0,0,7.53-4.05,11.1-2.89,0,0-2.19,1.81-5.65,1.53,0,0,7.14,3.65,12.77-4.77"/>
          <path class="cls-6" d="M59.96,47.76s-1.52.4-4.67-1.92c0,0,.33,1.53,1.54,1.78,0,0-4.59-2.43-8.08-1.57,0,0,6.68.77,8.46,3.12,0,0-2.23.19-4.34-1.55,0,0,2.97,5.56,10.39,2.65"/>
        </g>
      </g>
    </g>
  </g>
</svg>