<?xml version="1.0" encoding="UTF-8"?>
<svg xmlns="http://www.w3.org/2000/svg" xmlns:xlink="http://www.w3.org/1999/xlink" viewBox="0 0 59.01 46.1">
  <defs>
    <style>
      .cls-1 {
        fill: none;
      }

      .cls-2 {
        fill: #ffe5d1;
      }

      .cls-3 {
        fill: #fff;
        opacity: .44;
      }

      .cls-3, .cls-4, .cls-5 {
        mix-blend-mode: overlay;
      }

      .cls-6 {
        fill: url(#linear-gradient);
      }

      .cls-7 {
        fill: #8c473e;
      }

      .cls-8 {
        isolation: isolate;
      }

      .cls-4 {
        opacity: .3;
      }

      .cls-9 {
        clip-path: url(#clippath);
      }

      .cls-5 {
        fill: url(#linear-gradient-2);
        opacity: .53;
      }
    </style>
    <clipPath id="clippath">
      <path class="cls-1" d="M59.01,10.85l-15.17,33.92s-33.2,2.09-33.68,1.02S-.13,25.22,0,23.67,9.36.52,9.7.14s34.86.14,34.86.14l14.45,10.57Z"/>
    </clipPath>
    <linearGradient id="linear-gradient" x1="-104.21" y1="125.38" x2="-197.68" y2="114.09" gradientTransform="translate(-61.9 -137.13) rotate(-165.12) scale(1 -1)" gradientUnits="userSpaceOnUse">
      <stop offset="0" stop-color="#f7a97e"/>
      <stop offset="1" stop-color="#e1622f"/>
    </linearGradient>
    <linearGradient id="linear-gradient-2" x1="-94.91" y1="149.02" x2="-159.87" y2="124.91" gradientTransform="translate(-47.39 -133.83) rotate(-167.44) scale(1 -1)" gradientUnits="userSpaceOnUse">
      <stop offset="0" stop-color="#fff"/>
      <stop offset="1" stop-color="#fff" stop-opacity="0"/>
    </linearGradient>
  </defs>
  <g class="cls-8">
    <g id="Layer_2" data-name="Layer 2">
      <g id="Layer_1-2" data-name="Layer 1">
        <g class="cls-9">
          <g>
            <g>
              <path class="cls-6" d="M71.44,51.32c-1.96,0-4-.18-6.05-.53-16.02-2.75-19.84-9.93-19.99-10.24-.11-.23-.04-.5.17-.64.08-.05.18-.08.27-.08.14,0,.29.06.38.18.65.8,1.88,1.35,2.94,1.7-4.29-3.71-9.32-7.04-14.04-9.28-1.41-.67-2.78-1.23-4.07-1.68-2.91-1.03-5.56-1.55-7.88-1.55-1.32,0-2.53.17-3.62.5-7.44,2.29-8.06,3.44-8.08,3.48-.02.26-.22.42-.48.42h0c-.26,0-.46-.24-.49-.49-.19-2.22.08-4.23.49-5.9-.44,1.08-.64,1.89-.65,1.91-.05.22-.25.38-.48.38,0,0-.02,0-.03,0-.24-.01-.43-.19-.47-.43-.05-.38-1.19-9.34,4.28-16.75.23-.32.48-.62.73-.92,2.19-2.51,4.77-3.66,7.08-4.13-.21-.01-.4-.16-.45-.37-.06-.24.06-.48.28-.58,3.45-1.49,6.93-2.24,10.34-2.24s6.11.72,8.23,1.54c-1.75-1.02-3.06-1.29-3.08-1.29-.25-.05-.42-.29-.4-.54.03-.25.24-.44.49-.44h.01c6.4.16,11.8,2.99,16.25,5.75,1.06.66,2.1,1.33,3.11,1.99.01,0,1.61,1.04,1.61,1.04,1.48.95,3.19,1.46,4.93,1.46,4.1,0,7.73-2.74,8.81-6.65.29-1.04.45-2.14.48-3.28.02-.86-.04-1.77-.17-2.69-.44-2.98-1.74-6.21-3.86-9.59-.1-.16-.1-.35,0-.51.09-.15.25-.24.43-.24,0,0,33.32,1.78,33.32,1.78.12,0,.23.06.32.14.27.26,6.49,6.44,5.73,19.96-.22,4.08-1.09,8.45-2.57,13.01-6.07,18.67-12.63,20.69-15.17,20.69-.43,0-.68-.06-.72-.08-.16-.04-.29-.17-.34-.33-.05-.16-.02-.34.09-.47.01-.01.02-.03.03-.04-3.54,2.97-9.56,6.03-17.72,6.03Z"/>
              <path class="cls-7" d="M68.47-8.88l33.29,1.78s6.34,6.13,5.58,19.57c-.21,3.73-.96,8.01-2.54,12.88-6.12,18.82-12.72,20.34-14.7,20.34-.38,0-.59-.06-.59-.06,2.12-2.55,2.62-4.53,2.62-4.53-1.25,2.6-8.26,9.71-20.68,9.71-1.87,0-3.86-.16-5.97-.52-15.71-2.7-19.45-9.6-19.64-9.97,1.43,1.75,5.16,2.36,5.16,2.36-4.37-4.03-10.02-8.02-15.67-10.7-1.38-.65-2.76-1.23-4.12-1.7-2.82-1-5.56-1.58-8.05-1.58-1.33,0-2.6.17-3.77.53-8.06,2.49-8.4,3.69-8.41,3.85-.49-5.7,2.16-10.05,2.29-10.27-2.46,2.25-3.42,6.2-3.42,6.2,0,0-1.23-9.06,4.19-16.39.23-.31.47-.61.71-.89,3.04-3.48,6.86-4.25,9.63-4.25,2.18,0,3.72.47,3.72.47-1.8-1.04-4.08-1.22-5.44-1.22-.66,0-1.11.04-1.18.05,3.75-1.62,7.17-2.2,10.15-2.2,7.54,0,12.26,3.75,12.49,3.93-3.43-3.9-7.24-4.66-7.24-4.66,6.14.15,11.37,2.81,16,5.67,1.07.66,2.11,1.34,3.12,2h0c.53.35,1.06.69,1.58,1.03,1.63,1.05,3.43,1.54,5.2,1.54,4.13,0,8.08-2.66,9.29-7.02.29-1.04.47-2.17.5-3.4.02-.87-.03-1.8-.18-2.77-.42-2.82-1.61-6.07-3.93-9.78M68.47-9.87c-.35,0-.67.18-.85.49-.19.32-.18.71.01,1.03,2.08,3.33,3.36,6.49,3.79,9.4.14.89.19,1.77.17,2.6-.03,1.1-.18,2.16-.46,3.16-1.03,3.71-4.45,6.29-8.33,6.29-1.65,0-3.26-.48-4.66-1.38-.35-.22-.7-.45-1.06-.69l-.52-.34s-.03-.02-.04-.02c-1.13-.74-2.1-1.36-3.11-1.98-4.5-2.79-9.98-5.66-16.5-5.82,0,0-.02,0-.02,0-.5,0-.93.38-.98.88,0,.08,0,.17,0,.25-1.3-.24-2.73-.39-4.27-.39-3.48,0-7.02.77-10.54,2.28-.44.19-.68.66-.58,1.12-2.17.58-4.5,1.78-6.51,4.09-.3.34-.55.65-.77.96-5.59,7.56-4.42,16.72-4.37,17.1.06.47.45.83.93.86.02,0,.03,0,.05,0,.05,0,.1,0,.15-.01-.09,1-.11,2.06-.01,3.17.04.51.47.91.99.91,0,0,0,0,.01,0,.42,0,.79-.28.92-.66.21-.22,1.52-1.3,7.77-3.23,1.04-.32,2.21-.48,3.47-.48,2.27,0,4.86.51,7.72,1.52,1.28.45,2.63,1.01,4.03,1.67,3.51,1.67,7.18,3.94,10.6,6.51-.07.03-.14.06-.21.1-.42.28-.57.83-.34,1.28.4.79,4.36,7.75,20.35,10.5,2.08.36,4.14.54,6.14.54,7.73,0,13.59-2.72,17.28-5.56.13.17.31.29.52.35.08.02.38.09.85.09,2.65,0,9.47-2.05,15.64-21.03,1.49-4.6,2.36-9.02,2.59-13.14.77-13.74-5.61-20.08-5.88-20.34-.17-.17-.4-.26-.64-.28l-33.29-1.78s-.04,0-.05,0h0Z"/>
            </g>
            <path class="cls-2" d="M9.86,29.02s.96-3.95,3.41-6.2c-.13.21-2.78,4.57-2.29,10.27,0-.16.35-1.36,8.41-3.85,4.39-1.35,10.15.02,15.93,2.76-7.65-6.85-18.66-5.2-18.66-5.2,2.77-4.99,5.99-6.88,5.99-6.88-3.51,1.03-4.32,1.68-4.5,1.91,6.05-10.95,18.33-10.86,18.33-10.86-2.36-1.85-6.1-2.85-6.1-2.85,6.63-.76,19.25,3.85,19.25,3.85.1-1.93-4.15-3.94-4.15-3.94,2.76.26,6.83,1.83,10.5,3.5-5.38-3.5-11.56-7.48-19.12-7.67,0,0,3.81.76,7.24,4.66-.31-.25-9.37-7.44-22.63-1.73.21-.02,3.94-.38,6.62,1.17,0,0-8.64-2.67-14.06,4.66-5.42,7.34-4.19,16.39-4.19,16.39Z"/>
            <path class="cls-4" d="M9.86,29.02s.96-3.95,3.41-6.2c-.13.21-2.78,4.57-2.29,10.27,0-.16.35-1.36,8.41-3.85,4.39-1.35,10.15.02,15.93,2.76,5.65,2.68,11.3,6.67,15.67,10.7,0,0-3.75-.62-5.17-2.37.1.2,3.72,7.25,19.64,9.98,16.15,2.77,25.21-6.2,26.65-9.19,0,0-.5,1.98-2.62,4.53,0,0,7.99,2.18,15.29-20.29,1.58-4.87,2.34-9.16,2.54-12.88-1.55,7.81-5.03,18.83-12.83,26.52.2-.29,2.28-3.28,2.11-6.17,0,0-17.21,20.09-42.11,9.95,0,0,5.64.4,6.62-.96,0,0-8.24-2.54-20.32-10.34-12.09-7.8-26.45-5.26-26.45-5.26,0,0-1.58-2.54,1.24-6.9,0,0-3.26,1.94-4.56,4.27,0,0,.42-6.38,3.72-11.86-.24.28-.48.57-.71.88-5.42,7.34-4.19,16.39-4.19,16.39Z"/>
            <path class="cls-5" d="M74.16,19.41s-8.19,4.64-18.97-2.25-16.16-6.46-16.16-6.46c0,0,3.73,1.12,4.66,3.12,0,0-11.48-2.31-18.74,5.61,0,0,6.42-1.61,11.99.37,0,0-6.34.12-14.04,4.58,0,0,8.39-.85,20.14,6.42,11.75,7.26,25.93,6.96,25.93,6.96,0,0-2.27,3.81-5.34,4.66,0,0,14.21,1.58,21.3-6.47"/>
            <ellipse class="cls-3" cx="46.95" cy="10.17" rx="2.71" ry="6.97" transform="translate(26.81 53.78) rotate(-77.44)"/>
            <ellipse class="cls-3" cx="55.05" cy="16.58" rx="2.12" ry="5.46" transform="translate(26.89 66.71) rotate(-77.44)"/>
            <path class="cls-3" d="M14.05,12.62c.23-.31.47-.61.71-.88,5.43-6.22,13.35-3.78,13.35-3.78-2.68-1.55-6.41-1.19-6.62-1.17,13.26-5.72,22.32,1.48,22.63,1.73-3.43-3.9-7.24-4.66-7.24-4.66,6.14.15,11.37,2.81,16,5.67h0s0,0,0,0c.46.29.92.58,1.37.87.22.14.43.28.65.41.07.05.15.1.22.14.29.19.59.38.88.57h0c.48.31.95.62,1.42.92.06.04.13.08.19.12,5.43,3.47,12.73.72,14.46-5.5.29-1.04.47-2.17.5-3.4.6,1.81.63,4.22-1.15,7.08-2.17,3.51-5.32,4.94-9.01,4.62,4.43,2.16,8.39,2.39,12.33-2.66.99-1.28,1.54-2.67,1.75-4.11h0s-1.22,12.54-12.38,9.29c-6.08-1.77-7.74-3.64-10.17-5.75-.84-.53-2.38-1.86-2.38-1.86-1.81-1.25-4.31-2.58-8.35-4.03.26.11,2.39,1.1,3.36,4.25,0,0-10.95-6.54-20.43-4.19,0,0,4.52.84,5.72,3.45,0,0-16.5-7.27-21.24,14.41,0-.02.43-1.89,4.86-6.2-.1.19-1.79,3.48-2.95,11.63,0,0,9.83-3.83,18.69.67-4.33-1.53-8.47-2.08-11.81-1.05-8.06,2.49-8.41,3.69-8.41,3.85-.49-5.7,2.16-10.05,2.29-10.27-2.46,2.25-3.41,6.2-3.41,6.2,0,0-1.23-9.06,4.19-16.39Z"/>
          </g>
        </g>
      </g>
    </g>
  </g>
</svg>