<?xml version="1.0" encoding="UTF-8"?>
<svg xmlns="http://www.w3.org/2000/svg" viewBox="0 0 21.63 20.87">
  <defs>
    <style>
      .cls-1 {
        fill: #7d1b2a;
      }

      .cls-2 {
        fill: #2b2b2b;
      }

      .cls-3 {
        fill: #fafffe;
      }

      .cls-4 {
        isolation: isolate;
      }

      .cls-5 {
        fill: #636664;
      }

      .cls-5, .cls-6 {
        opacity: .2;
      }

      .cls-7 {
        mix-blend-mode: overlay;
      }

      .cls-8 {
        fill: #450f17;
      }
    </style>
  </defs>
  <g class="cls-4">
    <g id="Layer_2" data-name="Layer 2">
      <g id="Layer_1-2" data-name="Layer 1">
        <g>
          <path class="cls-3" d="M19.85,1.3l.34,5.52L1.81,7.58s-.55-3.43-.43-3.56,7.19-.72,7.53-.72,3.49-.32,3.49-.32l.17-2.19,6.17.21"/>
          <path class="cls-3" d="M20.14,12.73l.34,5.52-18.38.76s-.55-3.43-.43-3.56,7.19-.72,7.53-.72,3.49-.32,3.49-.32l.17-2.19,6.17.21"/>
          <g>
            <g>
              <path class="cls-3" d="M4.12,9.52c-2.23-.05-2.89-.96-3.05-1.26l-.92-.04.17-5.34,2.54-.18-.29-2.2,2.89-.11.34,2.13,5.58.02-.15-1.54-1.65-.09-.21-.77,11.35.32.59,7.19-1.18.02c0,.17-.06.46-.28.71-.25.29-.65.43-1.18.43h0c-.12,0-.24,0-.38-.02-.23-.03-.44-.05-.62-.09-1.15-.22-1.4-.62-1.53-1.04h-1.5c-.11.33-.55,1.26-2.15,1.26-.11,0-.23,0-.35-.01-1.8-.14-2.35-.74-2.49-.98l-2.36.07c-.16.35-.87,1.53-3.03,1.53h-.16ZM2.61,6.67l16.69-.28-.03-2.51-16.79.35.13,2.44ZM19,2.83l.06-1.52-5.71-.16.27,1.47,5.38.21Z"/>
              <path class="cls-2" d="M9.56.3l11.03.31.57,6.91-1.17.02s.14,1.14-1.32,1.14c-.11,0-.23,0-.36-.02-.22-.03-.43-.05-.61-.08h0c-1.19-.23-1.33-.66-1.43-1.01h0s0-.03,0-.04h-.03s-1.68,0-1.68,0c0,0-.2,1.26-2.04,1.26-.11,0-.22,0-.34-.01-2.15-.16-2.42-.99-2.42-.99l-2.54.07s-.53,1.53-2.93,1.53c-.05,0-.1,0-.16,0-2.54-.06-2.96-1.25-2.96-1.25l-.87-.04.16-5.07,2.57-.18-.02-.13-.27-2.07,2.6-.1.34,2.12,5.86.02-.17-1.82-1.67-.09-.13-.48M19.14,2.98l.07-1.81-6.03-.17.32,1.76,5.64.22M2.48,6.82l12.85-.21,4.12-.07-.03-2.8-8.02.16-9.06.19.15,2.73M9.18,0l.1.37.13.48.05.2h.2s1.42.08,1.42.08l.12,1.26-5.3-.02-.31-1.88-.04-.25h-.25s-2.6.11-2.6.11h-.31s.04.32.04.32l.25,1.89-2.26.16-.26.02v.26S0,8.07,0,8.07v.28s.27.01.27.01l.7.03c.24.38.99,1.21,3.13,1.26h.16c2.09,0,2.88-1.08,3.12-1.53l2.2-.06c.22.31.85.85,2.56.98.13,0,.24.01.36.01,1.54,0,2.07-.84,2.24-1.26h1.3c.15.42.46.81,1.53,1.02h0s.07.02.07.02c.18.03.39.06.62.09.14.02.27.02.39.02.58,0,1.01-.16,1.29-.48.19-.22.27-.47.3-.66l.9-.02h.3s-.02-.31-.02-.31l-.57-6.91-.02-.25h-.25S9.57.01,9.57.01h-.38ZM13.74,2.49l-.21-1.19,5.39.15-.05,1.24-5.13-.2h0ZM2.63,4.37l8.77-.18,7.73-.16.03,2.23-3.84.06-12.57.21-.12-2.16h0Z"/>
            </g>
            <path class="cls-5" d="M21.16,7.51l-.57-6.91-11.03-.31.13.48,1.67.09.17,1.82-5.86-.02-.34-2.12-2.6.1.27,2.07c2.54.12,5.82.35,8.39,1.2l8.02-.16.03,2.8-4.12.07c.28.34.59.64.9.92l.05.03c.45.39.92.72,1.43,1h0c.18.04.38.07.61.09,1.84.2,1.68-1.12,1.68-1.12l1.17-.02ZM13.5,2.76l-.32-1.76,6.03.17-.07,1.81-5.64-.22Z"/>
            <path class="cls-3" d="M9.86.53l10.52.29.53,6.46-.92.02c-.06,0-.12.03-.17.08-.04.05-.06.11-.06.18,0,0,.03.34-.19.58-.18.2-.48.3-.9.3-.1,0-.21,0-.33-.02-.2-.02-.39-.05-.55-.08-.01,0-.03-.01-.04-.01-1.07-.2-1.17-.54-1.25-.84,0,0,0-.02-.01-.03-.01-.05-.05-.1-.09-.13-.04-.03-.08-.04-.13-.04-.01,0-.02,0-.03,0h-1.68s0-.01,0-.01c-.11,0-.21.08-.22.19,0,.04-.2,1.07-1.81,1.07-.1,0-.21,0-.32-.01-1.93-.15-2.22-.83-2.22-.83-.03-.09-.12-.16-.22-.16,0,0,0,0,0,0l-2.54.07c-.09,0-.18.06-.21.15-.02.06-.52,1.37-2.72,1.37h-.15c-2.33-.06-2.75-1.09-2.75-1.1-.03-.09-.11-.15-.2-.15l-.64-.03.15-4.64,2.36-.17c.06,0,.12-.03.16-.08.04-.05.06-.11.05-.18l-.02-.12-.24-1.82,2.15-.08.31,1.92c.02.11.11.19.22.19l5.86.02h0c.06,0,.12-.03.17-.07.04-.05.06-.11.06-.17l-.17-1.82c-.01-.11-.1-.2-.21-.21l-1.51-.08v-.03M19.14,3.21c.12,0,.22-.1.23-.22l.07-1.81c0-.06-.02-.12-.06-.16-.04-.04-.1-.07-.16-.07l-6.03-.17s0,0,0,0c-.07,0-.13.03-.17.08-.04.05-.06.12-.05.19l.32,1.76c.02.11.11.18.22.19l5.64.22s0,0,0,0M2.48,7.05s0,0,0,0l12.85-.21,4.12-.07c.13,0,.23-.11.22-.23l-.03-2.8c0-.06-.03-.12-.07-.16-.04-.04-.1-.06-.16-.06,0,0,0,0,0,0l-8.02.16-9.06.19c-.06,0-.12.03-.16.07-.04.05-.06.11-.06.17l.15,2.73c0,.12.11.22.23.22M9.56.3l.13.48,1.67.09.17,1.82-5.86-.02-.34-2.12-2.6.1.27,2.07.02.13-2.57.18-.16,5.07.87.04s.41,1.19,2.96,1.25c.05,0,.11,0,.16,0,2.4,0,2.93-1.53,2.93-1.53l2.54-.07s.26.82,2.42.99c.12,0,.23.01.34.01,1.84,0,2.04-1.26,2.04-1.26h1.68s.03,0,.03,0c0,0,0,.02,0,.03h0c.1.35.23.78,1.43,1.01h0c.18.04.38.07.61.09.13.01.25.02.36.02,1.46,0,1.32-1.14,1.32-1.14l1.17-.02-.57-6.91-11.03-.31h0ZM19.14,2.98l-5.64-.22-.32-1.76,6.03.17-.07,1.81h0ZM2.48,6.82l-.15-2.73,9.06-.19,8.02-.16.03,2.8-4.12.07-12.85.21h0Z"/>
          </g>
          <g>
            <g>
              <path class="cls-1" d="M4.3,20.73c-2.23-.05-2.89-.96-3.05-1.25l-.78-.03c-.08,0-.14-.07-.14-.15l.16-5.07c0-.07.06-.13.13-.14l2.41-.17-.27-2.04s0-.08.03-.11c.03-.03.06-.05.1-.05,0,0,2.61-.1,2.61-.1.07,0,.13.05.14.12l.32,2,5.58.02-.15-1.54-1.55-.08c-.06,0-.11-.04-.13-.1l-.13-.48s0-.09.03-.13c.03-.03.07-.05.11-.05,0,0,11.04.31,11.04.31.07,0,.13.06.14.13l.57,6.91s0,.08-.04.11-.06.05-.1.05l-1.03.02c0,.17-.06.46-.28.71-.25.29-.65.43-1.19.43h0c-.12,0-.24,0-.37-.02-.23-.03-.44-.05-.62-.09-1.15-.22-1.4-.62-1.53-1.04h-1.5c-.11.33-.55,1.26-2.15,1.26-.11,0-.23,0-.35-.01-1.8-.14-2.35-.74-2.49-.98l-2.36.07c-.16.35-.87,1.53-3.03,1.53h-.16ZM2.8,17.89l16.69-.28-.03-2.51-16.79.35.13,2.44ZM19.19,14.04l.06-1.52-5.71-.16.27,1.47,5.38.21Z"/>
              <path class="cls-8" d="M9.75,11.51l11.03.31.57,6.91-1.17.02s.14,1.14-1.32,1.14c-.11,0-.23,0-.36-.02-.22-.02-.43-.05-.61-.08h0c-1.19-.23-1.33-.66-1.43-1.01h0s0-.03,0-.04h-.03s-1.68,0-1.68,0c0,0-.2,1.26-2.04,1.26-.11,0-.22,0-.34-.01-2.15-.16-2.42-.99-2.42-.99l-2.54.07s-.53,1.53-2.93,1.53c-.05,0-.1,0-.16,0-2.54-.06-2.96-1.25-2.96-1.25l-.87-.04.16-5.07,2.57-.18-.02-.13-.27-2.07,2.6-.1.34,2.12,5.86.02-.17-1.82-1.67-.09-.13-.48M19.33,14.19l.07-1.81-6.03-.17.32,1.76,5.64.22M2.67,18.03l12.85-.21,4.12-.07-.03-2.8-8.02.16-9.06.19.15,2.73M9.75,11.22c-.09,0-.17.04-.22.11-.06.07-.07.16-.05.25l.13.48c.03.12.14.2.26.21l1.42.07.12,1.26-5.3-.02-.31-1.88c-.02-.14-.14-.24-.28-.24,0,0,0,0-.01,0l-2.6.1c-.08,0-.16.04-.21.1s-.08.14-.06.22l.25,1.89-2.26.16c-.15.01-.26.13-.26.27l-.16,5.07c0,.16.12.29.27.29l.7.03c.24.38.99,1.21,3.13,1.26h.16c2.09,0,2.88-1.08,3.12-1.53l2.2-.06c.22.31.85.85,2.56.98.13,0,.24.01.36.01,1.54,0,2.07-.84,2.24-1.26h1.3c.15.42.47.82,1.56,1.03.02,0,.03.01.05.01.18.03.39.06.62.09.14.02.27.02.39.02.58,0,1.01-.16,1.29-.48.19-.22.27-.47.3-.66l.9-.02c.08,0,.15-.04.21-.09.05-.06.08-.14.07-.21l-.57-6.91c-.01-.14-.13-.26-.28-.26l-11.03-.31s0,0,0,0h0ZM13.92,13.7l-.21-1.19,5.39.15-.05,1.24-5.13-.2h0ZM2.82,15.58l8.77-.18,7.73-.16.03,2.23-3.84.06-12.57.21-.12-2.16h0Z"/>
            </g>
            <path class="cls-6" d="M21.35,18.72l-.57-6.91-11.03-.31.13.48,1.67.09.17,1.82-5.86-.02-.34-2.12-2.6.1.27,2.07c2.54.12,5.82.35,8.39,1.2l8.02-.16.03,2.8-4.12.07c.28.34.59.64.9.92l.05.03c.45.39.92.72,1.43,1h0c.18.04.38.07.61.09,1.84.2,1.68-1.12,1.68-1.12l1.17-.02ZM13.69,13.97l-.32-1.76,6.03.17-.07,1.81-5.64-.22Z"/>
            <g class="cls-7">
              <path class="cls-3" d="M10.05,11.74l10.52.29.53,6.46-.92.02c-.06,0-.12.03-.17.08s-.06.11-.06.18c0,0,.03.34-.19.58-.18.2-.48.3-.9.3-.1,0-.21,0-.34-.02-.2-.02-.39-.05-.55-.08-.01,0-.03-.01-.04-.01-1.07-.2-1.17-.54-1.25-.84,0,0,0-.02-.01-.03-.01-.05-.05-.1-.09-.13-.04-.03-.08-.04-.13-.04-.01,0-.02,0-.03,0h-1.68s0-.01,0-.01c-.11,0-.21.08-.22.19,0,.04-.2,1.07-1.81,1.07-.1,0-.21,0-.32-.01-1.93-.15-2.22-.83-2.22-.83-.03-.09-.12-.16-.22-.16,0,0,0,0,0,0l-2.54.07c-.09,0-.18.06-.21.15-.02.06-.52,1.37-2.72,1.37h-.15c-2.33-.06-2.75-1.09-2.75-1.1-.03-.09-.11-.15-.2-.15l-.64-.03.15-4.64,2.36-.17c.06,0,.12-.03.16-.08.04-.05.06-.11.05-.18l-.02-.12-.24-1.82,2.15-.08.31,1.92c.02.11.11.19.22.19l5.86.02h0c.06,0,.12-.03.17-.07.04-.05.06-.11.06-.17l-.17-1.82c-.01-.11-.1-.2-.21-.21l-1.51-.08v-.03M19.33,14.42c.12,0,.22-.1.23-.22l.07-1.81c0-.06-.02-.12-.06-.16-.04-.04-.1-.07-.16-.07l-6.03-.17s0,0,0,0c-.07,0-.13.03-.17.08-.04.05-.06.12-.05.19l.32,1.76c.02.11.11.18.22.19l5.64.22s0,0,0,0M2.67,18.26s0,0,0,0l12.85-.21,4.12-.07c.13,0,.23-.11.22-.23l-.03-2.8c0-.06-.03-.12-.07-.16-.04-.04-.1-.06-.16-.06,0,0,0,0,0,0l-8.02.16-9.06.19c-.06,0-.12.03-.16.07-.04.05-.06.11-.06.17l.15,2.73c0,.12.11.22.23.22M9.75,11.51l.13.48,1.67.09.17,1.82-5.86-.02-.34-2.12-2.6.1.27,2.07.02.13-2.57.18-.16,5.07.87.04s.41,1.19,2.96,1.25c.05,0,.11,0,.16,0,2.4,0,2.93-1.53,2.93-1.53l2.54-.07s.26.82,2.42.99c.12,0,.23.01.34.01,1.84,0,2.04-1.26,2.04-1.26h1.68s.03,0,.03,0c0,0,0,.02,0,.03h0c.1.35.23.78,1.43,1.01h0c.18.04.38.07.61.09.13.01.25.02.36.02,1.46,0,1.32-1.14,1.32-1.14l1.17-.02-.57-6.91-11.03-.31h0ZM19.33,14.19l-5.64-.22-.32-1.76,6.03.17-.07,1.81h0ZM2.67,18.03l-.15-2.73,9.06-.19,8.02-.16.03,2.8-4.12.07-12.85.21h0Z"/>
            </g>
          </g>
        </g>
      </g>
    </g>
  </g>
</svg>