<?xml version="1.0" encoding="UTF-8"?>
<svg xmlns="http://www.w3.org/2000/svg" viewBox="0 0 25 16.99">
  <defs>
    <style>
      .cls-1 {
        fill: #7d1b2a;
      }

      .cls-2 {
        fill: #fafffe;
      }

      .cls-3 {
        isolation: isolate;
      }

      .cls-4 {
        mix-blend-mode: overlay;
      }

      .cls-5 {
        opacity: .2;
      }

      .cls-6 {
        fill: #450f17;
      }
    </style>
  </defs>
  <g class="cls-3">
    <g id="Layer_2" data-name="Layer 2">
      <g id="Layer_1-2" data-name="Layer 1">
        <g>
          <path class="cls-2" d="M9.61,1.42v4.8s11.36-.65,12.03-.41,1.66.03,1.69,1.38.13,5.06,0,5.4-21.99.38-21.99.38L.9,1.99l7.67-.84"/>
          <g>
            <path class="cls-1" d="M20.45,16.72c-2.62.23-3.63-1.93-3.87-2.56h-2.73c-.13.43-.66,1.5-2.59,1.87l-.16.03c-2.14.35-2.85-1.47-3.03-2.11l-1.73.09c-.1.77-.33,1.49-1.63,1.94-.2.07-.44.13-.77.2h0c-.76.14-1.35-.06-1.74-.61-.31-.44-.42-.99-.45-1.32l-1.18.02s-.09-.03-.13-.08c-.03-.05-.05-.12-.06-.19L.16,1.61c0-.12.05-.22.13-.24,0,0,12.69-1.12,12.69-1.12.05,0,.1.03.14.09s.05.15.05.22l-.09.87c-.01.1-.06.18-.13.19,0,0-1.78.22-1.78.22l.03,2.76,6.43-.33.12-3.6c0-.12.06-.2.13-.22,0,0,3.03.04,3.03.04.05,0,.09.03.13.09s.05.13.05.2l-.05,3.67,2.8.18c.08,0,.16.11.17.24l.83,9.06c.01.13-.04.25-.13.27,0,0-.9.1-.9.1-.13.49-.69,1.93-2.76,2.32-.19.04-.38.06-.59.08ZM21.66,7.19l-19.39.24.28,4.5,19.26-.37-.16-4.37ZM8.74,2.24l-6.56.58.27,2.72,6.18-.65.12-2.65Z"/>
            <path class="cls-6" d="M.33,1.63L13.01.51l-.09.87-1.91.24.03,3.26,6.75-.34.13-3.81,3.01.04-.05,3.71v.23s2.98.19,2.98.19l.83,9.06-.99.11s-.28,1.86-2.67,2.31c-.18.03-.38.06-.58.08-2.92.25-3.75-2.56-3.75-2.56h-2.94s-.19,1.43-2.51,1.87c-.05,0-.1.02-.15.03-2.46.4-2.89-2.11-2.89-2.11l-1.94.11h-.04s0,.02,0,.05h0c-.07.63-.17,1.4-1.52,1.87h0c-.2.08-.43.14-.69.19-.02,0-.05.01-.07.01-2.02.38-2-1.93-2-1.93l-1.35.02L.33,1.63M8.78,5.13l.14-3.16-6.93.61.32,3.23,6.47-.68M21.99,11.81l-.18-4.88-10.46.13-9.26.12.31,5.01,4.76-.09,14.83-.28M.26,1.12C.11,1.15,0,1.35,0,1.6l.22,12.39c0,.14.04.28.11.38.07.1.16.16.25.16l1.04-.02c.06.36.19.84.48,1.24.43.6,1.06.83,1.87.68l.08-.02c.26-.06.5-.12.71-.19.02,0,.04-.02.05-.03,1.23-.44,1.54-1.16,1.66-1.91l1.5-.08c.27.81,1.08,2.44,3.16,2.1l.16-.03c1.83-.35,2.45-1.32,2.66-1.86h2.54c.34.81,1.43,2.78,3.98,2.56.21-.02.42-.04.6-.08,1.98-.38,2.64-1.7,2.84-2.33l.81-.09s.01,0,.02,0c.17-.03.28-.26.26-.53l-.83-9.06c-.02-.26-.17-.47-.34-.48l-2.63-.17.05-3.4c0-.14-.04-.29-.1-.39-.07-.11-.16-.17-.25-.17l-3.01-.04s-.03,0-.04,0c-.14.03-.25.2-.26.43l-.11,3.39-6.11.31-.02-2.26,1.64-.21s0,0,.01,0c.13-.03.23-.18.26-.38l.09-.87c.02-.16-.02-.32-.09-.45-.07-.13-.18-.19-.28-.18L.28,1.12s-.01,0-.02,0H.26ZM8.57,2.51l-.1,2.14-5.88.62-.22-2.21,6.2-.55h0ZM21.51,7.44l.14,3.87-14.52.28-4.43.08-.25-3.99,8.93-.12,10.12-.12h0Z"/>
          </g>
          <path class="cls-5" d="M1.9,13.99s-.02,2.36,2.07,1.91c.25-.06.49-.12.69-.18h0c.54-.53,1.05-1.15,1.52-1.87l.05-.06c.33-.52.64-1.07.92-1.69l-4.76.09-.31-5.01,9.26-.12c2.85-1.64,6.6-2.24,9.52-2.57l.05-3.71-3.01-.04-.13,3.81-6.75.34-.03-3.26,1.91-.24.09-.87L.33,1.63l.22,12.39,1.35-.02ZM2.31,5.81l-.32-3.23,6.93-.61-.14,3.16-6.47.68Z"/>
          <g class="cls-4">
            <path class="cls-2" d="M.6,2.01L12.69.95v.05s-1.73.22-1.73.22c0,0,0,0-.01,0-.12.02-.21.18-.21.37l.03,3.26c0,.12.03.23.09.31.06.08.13.13.21.13l6.75-.34s.02,0,.02,0c.12-.02.2-.16.21-.35l.12-3.46,2.49.03-.04,3.26v.22c0,.11.02.23.07.31.05.09.12.14.2.14l2.74.17.76,8.29-.74.08s0,0-.01,0c-.1.02-.18.13-.2.28,0,.01-.3,1.62-2.47,2.03-.18.03-.36.06-.56.08-2.67.23-3.45-2.2-3.48-2.3-.05-.16-.15-.26-.26-.26h-2.94s-.02,0-.03,0c-.1.02-.18.13-.2.29h0s-.24,1.18-2.3,1.57l-.15.03c-2.17.36-2.57-1.69-2.59-1.78-.04-.2-.16-.34-.29-.33l-1.94.11s-.04,0-.06,0c-.05,0-.09.04-.12.08-.04.06-.07.14-.08.24,0,.02,0,.03,0,.05-.06.54-.13,1.15-1.34,1.57-.02,0-.03.01-.05.03-.18.06-.4.11-.63.16h-.07c-.62.13-1.09-.01-1.37-.4-.31-.43-.31-1.06-.31-1.07,0-.11-.03-.23-.09-.31-.06-.08-.13-.13-.2-.13l-1.07.02-.21-11.59M8.84,5.53c.11-.02.2-.16.21-.34l.14-3.16c0-.12-.03-.25-.08-.34-.06-.09-.14-.14-.22-.13l-6.93.61s-.01,0-.02,0c-.06.01-.12.06-.16.13-.04.08-.06.19-.05.3l.32,3.23c.01.11.05.21.11.28.06.07.13.11.2.1l6.47-.68s0,0,.01,0M22.05,12.22c.13-.02.22-.19.21-.39l-.18-4.88c0-.11-.04-.22-.09-.3-.05-.08-.13-.12-.2-.12l-10.46.13-9.26.12s-.02,0-.03,0c-.13.02-.22.2-.21.41l.31,5.01c0,.11.04.21.1.29.05.08.12.12.19.12l4.76-.09,14.83-.28s.02,0,.03,0M.33,1.63l.22,12.39,1.35-.02s-.02,2.31,2,1.93c.02,0,.05,0,.07-.01.25-.06.49-.12.69-.18h0c1.35-.48,1.45-1.25,1.52-1.87h0s0-.06,0-.07h.04s1.94-.1,1.94-.1c0,0,.43,2.52,2.89,2.11.05,0,.1-.02.15-.03,2.31-.44,2.51-1.86,2.51-1.86h2.94s.84,2.81,3.75,2.56c.21-.02.4-.04.58-.08,2.39-.45,2.67-2.31,2.67-2.31l.99-.11-.83-9.06-2.98-.19v-.23s.06-3.71.06-3.71l-3.01-.04-.13,3.81-6.75.34-.03-3.26,1.91-.24.09-.87L.33,1.63H.33ZM8.78,5.13l-6.47.68-.32-3.23,6.93-.61-.14,3.16h0ZM21.99,11.81l-14.83.28-4.76.09-.31-5.01,9.26-.12,10.46-.13.18,4.88h0Z"/>
          </g>
        </g>
      </g>
    </g>
  </g>
</svg>