<?xml version="1.0" encoding="UTF-8"?>
<svg xmlns="http://www.w3.org/2000/svg" xmlns:xlink="http://www.w3.org/1999/xlink" viewBox="0 0 25.61 54.53">
  <defs>
    <style>
      .cls-1 {
        fill: url(#linear-gradient-3);
      }

      .cls-2 {
        fill: url(#linear-gradient-2);
      }

      .cls-3 {
        fill: #b57d69;
      }

      .cls-4 {
        fill: #fff;
        opacity: .44;
      }

      .cls-4, .cls-5, .cls-6 {
        mix-blend-mode: overlay;
      }

      .cls-7 {
        fill: url(#radial-gradient);
      }

      .cls-8 {
        fill: url(#linear-gradient);
      }

      .cls-9 {
        isolation: isolate;
      }

      .cls-10 {
        fill: #691722;
      }

      .cls-5 {
        opacity: .3;
      }

      .cls-6 {
        opacity: .21;
      }
    </style>
    <linearGradient id="linear-gradient" x1="-234.1" y1="24.53" x2="-231.98" y2="50.66" gradientTransform="translate(-217.81) rotate(-180) scale(1 -1)" gradientUnits="userSpaceOnUse">
      <stop offset="0" stop-color="#6e1825"/>
      <stop offset=".37" stop-color="#701825"/>
      <stop offset=".54" stop-color="#771826"/>
      <stop offset=".68" stop-color="#841828"/>
      <stop offset=".8" stop-color="#97182b"/>
      <stop offset=".9" stop-color="#af182f"/>
      <stop offset=".99" stop-color="#cc1834"/>
      <stop offset="1" stop-color="#cf1935"/>
    </linearGradient>
    <radialGradient id="radial-gradient" cx="-656.97" cy="12.59" fx="-656.97" fy="12.59" r="9.94" gradientTransform="translate(663.54)" gradientUnits="userSpaceOnUse">
      <stop offset="0" stop-color="#fcf4f1"/>
      <stop offset="1" stop-color="#f7dec8"/>
    </radialGradient>
    <linearGradient id="linear-gradient-2" x1="-257.19" y1="-854.99" x2="-282.01" y2="-852.4" gradientTransform="translate(504.12 -734.16) rotate(15.49) scale(1 -1)" xlink:href="#linear-gradient"/>
    <linearGradient id="linear-gradient-3" x1="-327.38" y1="32.92" x2="-347.15" y2="34.98" gradientTransform="translate(352.75 50.22) rotate(8.99)" xlink:href="#linear-gradient"/>
  </defs>
  <g class="cls-9">
    <g id="Layer_2" data-name="Layer 2">
      <g id="Layer_1-2" data-name="Layer 1">
        <g>
          <g>
            <g>
              <path class="cls-8" d="M12.55,54.23c-4.52,0-9.09-3.78-9.29-3.94-.07-.06-.11-.15-.11-.24,0-.09.04-.18.11-.23.08-.06.16-.13.24-.2,6.33-5.22,9.04-15.72,9.06-15.83.03-.13.15-.22.28-.23l.7-.04s11.44-.62,11.45-.62c.11,0,.22.06.27.16.06.11.04.23-.03.33-1.23,1.58-1.96,3.52-2.14,5.77-.13,1.51,0,3.17.36,4.93.63,3.09,1.81,5.43,1.82,5.46.06.11.04.25-.04.34-.06.07-.14.1-.23.1-.04,0-.07,0-.11-.02-1.97-.75-3.55-1.12-4.71-1.12-.84,0-1.44.2-1.76.59-.38.46-.26,1.06-.26,1.07.03.14-.05.29-.18.34-.04.02-.08.02-.12.02-.1,0-.19-.05-.25-.13-.55-.81-.77-1.86-.77-3.01-.46,3.13.34,4.26.36,4.28.09.12.08.3-.03.41-1.25,1.21-2.8,1.82-4.61,1.82h0Z"/>
              <path class="cls-10" d="M25,33.21h0M25,33.21c-1.41,1.81-2.04,3.88-2.21,5.93-.15,1.74.04,3.47.36,5.02.65,3.17,1.85,5.53,1.85,5.53-2.22-.84-3.76-1.14-4.82-1.14-2.74,0-2.32,2.02-2.32,2.02-1.45-2.14-.46-6.15.69-9.23,0,0,0-.02,0-.03.09-.25.19-.49.28-.72.37-.94.73-1.75,1.01-2.35-.41.82-.77,1.59-1.09,2.32-.02.03-.03.07-.05.11-3.85,8.88-1.76,11.53-1.76,11.53-1.31,1.26-2.85,1.73-4.4,1.73-4.46,0-9.09-3.87-9.09-3.87.08-.07.17-.14.25-.21,6.47-5.34,9.15-15.98,9.15-15.98l.7-.04,11.43-.62M25,32.6s-.01,0-.02,0c0,0-.02,0-.02,0l-11.42.62-.7.04c-.27.02-.49.2-.55.46-.03.1-2.71,10.51-8.95,15.66-.09.08-.17.15-.25.21-.14.11-.23.29-.23.47,0,.18.08.36.22.47.2.16,4.85,4.01,9.48,4.01,1.89,0,3.51-.64,4.82-1.9.23-.22.25-.57.06-.82,0,0-.29-.43-.39-1.48.09.2.2.39.32.58.12.17.31.27.5.27.08,0,.16-.02.24-.05.27-.11.42-.4.36-.69h0s-.08-.47.2-.81c.26-.31.78-.48,1.52-.48,1.12,0,2.67.37,4.6,1.1.07.03.14.04.22.04.17,0,.34-.07.45-.2.17-.19.2-.46.09-.68-.01-.02-1.17-2.34-1.79-5.38-.36-1.73-.48-3.36-.35-4.84.18-2.17.88-4.05,2.06-5.58.1-.11.15-.25.15-.4,0-.34-.27-.61-.61-.61h0ZM25,33.82h0,0Z"/>
            </g>
            <path class="cls-4" d="M18.56,41.33c-1.15,3.08-2.14,7.09-.69,9.23,0,0-.82-3.89,7.14-.88,0,0-2.65-5.21-2.21-10.55-1.1,4.3.99,9.23,1.08,9.48-2.96-1.5-6.16,0-6.16,0-.26-1.86.34-5.06.84-7.28Z"/>
            <path class="cls-4" d="M3.46,50.05s8.41,7.03,13.49,2.13c0,0-2.09-2.64,1.76-11.53.24-.99.44-1.68.46-1.79-4.66,9.29-3.28,13.04-3.28,13.04-4.38,3.37-11.11-1.89-11.11-1.89,5.01-3.01,7.87-12.55,8.79-16.2l-.7.04s-2.76,10.92-9.41,16.19Z"/>
            <path class="cls-6" d="M3.72,49.84c4.22-2.31,10.11-8.97,13.66-9.41.46-.06.93,0,1.38.12.02,0,.06.02.08.02,1.58.48,3.08,1.97,4.31,3.57-.32-1.54-.51-3.28-.36-5.02.17-2.05.8-4.12,2.21-5.93l-11.43.62-.7.04s-2.68,10.64-9.15,15.98Z"/>
            <ellipse class="cls-4" cx="13.41" cy="52.11" rx="2.28" ry="1.15"/>
            <ellipse class="cls-4" cx="11.22" cy="49.84" rx="1.57" ry=".79"/>
          </g>
          <g>
            <g>
              <path class="cls-7" d="M2.26,25.06c-.06-.01-1.41-.31-1.88-1.43-.41-.98.01-2.01.14-2.28-.13-.14-.4-.56-.42-1.45-.01-.91.49-1.35.71-1.5-.15-.25-.44-.96.26-1.7.54-.57,1.02-.69,1.34-.69.04,0,.08,0,.11,0-.01-.28.05-.94.7-1.69.67-.78,1.45-.95,1.78-1.01-.37-.5-.49-1.11-.39-1.81.15-1.03.88-1.53,1.2-1.7-.25-.23-.75-.81-.78-1.86-.03-1.09.55-1.57.81-1.73-.27-.35-1.08-1.58-.42-2.84.7-1.34,2.16-1.41,2.45-1.41-.02-.04.26-1.1,1.78-1.72.26-.1.53-.16.82-.16,1.3,0,2.47,1.05,2.52,1.1l.05.05L2.34,25.07l-.08-.02Z"/>
              <path class="cls-3" d="M10.46.21c1.28,0,2.45,1.07,2.45,1.07L2.28,24.96s-1.35-.28-1.8-1.36c-.45-1.08.17-2.26.17-2.26,0,0-.42-.35-.44-1.43-.02-1.08.75-1.46.75-1.46,0,0-.63-.8.19-1.66.53-.56,1-.66,1.26-.66.14,0,.23.03.23.03,0,0-.16-.79.66-1.75.82-.96,1.85-.96,1.85-1.01s-.63-.61-.44-1.87c.19-1.25,1.29-1.7,1.29-1.7,0,0-.83-.56-.87-1.88-.03-1.32.87-1.69.87-1.69,0,0-1.24-1.38-.49-2.82.67-1.28,2.06-1.35,2.36-1.35.04,0,.06,0,.06,0,0,0,.22-1.1,1.76-1.73.26-.11.52-.15.78-.15M10.46,0c-.3,0-.59.06-.86.16-1.28.52-1.71,1.36-1.83,1.71-.44.02-1.78.18-2.45,1.46-.65,1.24.04,2.41.37,2.86-.3.22-.79.73-.77,1.75.02.96.44,1.55.72,1.84-.37.23-.99.75-1.14,1.71-.1.67,0,1.26.31,1.76-.38.09-1.08.32-1.67,1.01-.59.69-.71,1.31-.72,1.65,0,0,0,0-.01,0-.33,0-.85.13-1.41.72-.63.66-.52,1.35-.32,1.74C.42,18.58-.01,19.05,0,19.91c.01.83.25,1.27.4,1.46-.16.35-.52,1.35-.12,2.3.49,1.17,1.89,1.47,1.95,1.49l.16.03.07-.15L13.1,1.36l.06-.14-.11-.1c-.05-.05-1.25-1.13-2.59-1.13h0Z"/>
            </g>
            <g>
              <path class="cls-2" d="M10.94,27.08c-1.86,0-3.48-.16-4.8-.47-2.8-.65-4.36-1.99-4.63-3.99-.59-4.3,1.06-5.58,2.65-6.82,1.17-.91,2.27-1.77,2.58-3.8.18-1.16.21-2.36.25-3.53.09-3.26.17-6.33,3.66-7.08.02,0,.03,0,.05,0s.03,0,.04,0c.56-.12,1.11-.17,1.7-.17,2.9.01,5.92,2.45,9.04,7.26,2.34,3.6,3.86,7.26,3.88,7.3.02.05.02.11,0,.16l-3.45,9.75c-.03.07-.09.13-.16.14-.69.15-2.46.51-4.7.81,0,0-.03,0-.04,0-2.23.29-4.26.44-6.07.44Z"/>
              <path class="cls-10" d="M12.44,1.44s.04,0,.06,0c3.32.01,6.47,3.58,8.79,7.16,2.35,3.62,3.86,7.26,3.86,7.26l-3.45,9.75c-.11.02-2.05.46-4.69.81,0,0,0,0,0,0,0,0-.01,0-.02,0-1.81.24-3.96.44-6.05.44-1.67,0-3.32-.13-4.75-.46-2.39-.55-4.18-1.7-4.46-3.81-.99-7.26,4.47-5.58,5.24-10.56.69-4.47-.77-9.46,3.73-10.42,0,0,0,0,0,0,0,0,0,0,0,0,.5-.11,1.08-.17,1.74-.17M12.44,1c-.65,0-1.26.06-1.8.17-.01,0-.03,0-.04,0-3.66.78-3.75,3.94-3.84,7.29-.03,1.16-.06,2.35-.24,3.5-.3,1.94-1.37,2.78-2.5,3.66-1.64,1.28-3.34,2.6-2.74,7.03.28,2.1,1.9,3.51,4.8,4.18,1.34.32,2.97.48,4.85.48s3.88-.15,6.1-.44c.01,0,.02,0,.04,0,2.28-.3,4.04-.67,4.69-.81.15-.03.3-.15.35-.29l3.45-9.75c.04-.1.03-.22,0-.32-.02-.04-1.55-3.72-3.9-7.33C18.51,3.49,15.43,1.01,12.51,1h-.07Z"/>
            </g>
            <path class="cls-4" d="M21.29,8.6c-2.32-3.58-5.47-7.14-8.79-7.16-6.68-.04-4.77,5.6-5.55,10.58-.77,4.98-6.23,3.3-5.24,10.56.67,4.95,9.57,4.59,15.27,3.83-5.12.13-13.48-.17-14.39-3.53-1.32-4.88,3.75-6.25,4.56-8.81s.27-11.99,4.73-11.57c2.95.28,6.67,2.96,9.41,6.09Z"/>
            <path class="cls-5" d="M25.15,15.86s-1.51-3.64-3.86-7.26c-2.32-3.58-5.47-7.14-8.79-7.16-.69,0-1.29.06-1.81.16,2.36,2.08,5.95,6.57,4.19,13.76-1.6,6.5-5.8,9.61-8.7,11.02,3.22.76,7.54.46,10.8.02,0,0,.02,0,.03,0,2.64-.35,4.58-.79,4.69-.81l3.45-9.75Z"/>
            <ellipse class="cls-4" cx="3.45" cy="20.29" rx="3.24" ry="1.23" transform="translate(-17.03 18.2) rotate(-74.51)"/>
            <ellipse class="cls-4" cx="6.84" cy="17.96" rx="2.46" ry=".93" transform="translate(-12.29 19.75) rotate(-74.51)"/>
          </g>
          <g>
            <g>
              <path class="cls-1" d="M8.34,41.26c-.69,0-1.33-.13-1.88-.38-.49-.22-.91-.46-1.27-.72,0,0-.02,0-.02-.01-2.28-1.69-1.33-3.95-.32-6.34.36-.85.73-1.74.99-2.64.44-1.58-.07-2.56-.62-3.61-.75-1.43-1.52-2.9.33-5.82.64-1.02,1.69-1.54,3.13-1.54.47,0,1,.06,1.55.17,2.65.53,5.75,2.23,7.9,3.57,1.54.97,2.71,1.81,3.14,2.13.05.04.1.12.1.18l-.72,8.21s-.02.08-.06.11c-.02.02-2.34,2.17-5.22,4.01-2.78,1.78-5.14,2.68-7.02,2.68Z"/>
              <path class="cls-10" d="M8.67,20.38c.48,0,.99.06,1.51.17,2.58.51,5.62,2.16,7.84,3.55,0,0,.01,0,.02.01,1.8,1.13,3.06,2.08,3.13,2.13l-.72,8.2s-2.29,2.14-5.2,3.99c-2.2,1.41-4.76,2.65-6.92,2.65-.65,0-1.25-.11-1.81-.36-.5-.22-.91-.46-1.26-.72,0,0,0,0,0,0,0,0,0,0,0,0-2.95-2.18-.24-5.32.73-8.79,1.09-3.87-3.43-4.45-.31-9.38.65-1.04,1.71-1.45,2.98-1.45M8.67,20.03c-1.5,0-2.6.54-3.28,1.62-1.9,3.01-1.1,4.53-.33,6,.53,1.01,1.03,1.97.61,3.48-.25.89-.62,1.77-.98,2.62-1.04,2.46-2.02,4.78.38,6.55,0,0,.02.01.03.02.37.27.8.51,1.3.74.58.26,1.23.39,1.95.39,1.91,0,4.3-.91,7.11-2.7,2.89-1.84,5.22-4.01,5.25-4.03.06-.06.1-.14.11-.23l.72-8.2c.01-.12-.04-.24-.14-.31-.44-.33-1.6-1.18-3.15-2.15-.01,0-.03-.02-.04-.02-2.18-1.36-5.28-3.06-7.94-3.58-.57-.11-1.1-.17-1.58-.17h0Z"/>
            </g>
            <path class="cls-4" d="M15.26,38.43c-2.86,1.83-6.32,3.37-8.73,2.29-4.86-2.18-1.61-5.64-.53-9.5,1.09-3.87-3.43-4.45-.31-9.38,2.12-3.36,8.45-.17,12.33,2.26-3.67-1.79-9.83-4.33-11.6-2.19-2.56,3.1.66,5.77.4,7.89s-3.76,8.78-.39,9.95c2.23.77,5.81.06,8.83-1.31Z"/>
            <path class="cls-5" d="M20.45,34.44s-2.29,2.14-5.2,3.99c-2.86,1.83-6.32,3.37-8.73,2.29-.5-.22-.91-.46-1.26-.72,2.4-.73,6.49-2.8,7.58-8.6.99-5.24-1.03-8.88-2.67-10.86,2.58.51,5.62,2.16,7.84,3.55,0,0,.01,0,.02.01,1.8,1.13,3.06,2.08,3.13,2.13l-.72,8.2Z"/>
            <ellipse class="cls-4" cx="6.19" cy="24.06" rx="2.58" ry=".98" transform="translate(-18.55 26.41) rotate(-81.01)"/>
            <ellipse class="cls-4" cx="7.87" cy="26.88" rx="1.96" ry=".74" transform="translate(-19.91 30.45) rotate(-81.01)"/>
          </g>
        </g>
      </g>
    </g>
  </g>
</svg>