<?xml version="1.0" encoding="UTF-8"?>
<svg xmlns="http://www.w3.org/2000/svg" xmlns:xlink="http://www.w3.org/1999/xlink" viewBox="0 0 115.96 45.68">
  <defs>
    <style>
      .cls-1 {
        fill: url(#radial-gradient-2);
      }

      .cls-2 {
        fill: url(#linear-gradient-2);
      }

      .cls-3 {
        fill: #b57d69;
      }

      .cls-4 {
        fill: #fff;
        opacity: .44;
      }

      .cls-4, .cls-5, .cls-6 {
        mix-blend-mode: overlay;
      }

      .cls-7 {
        fill: url(#radial-gradient);
      }

      .cls-8 {
        fill: url(#linear-gradient);
      }

      .cls-9 {
        fill: #8c473e;
      }

      .cls-10 {
        isolation: isolate;
      }

      .cls-5 {
        opacity: .28;
      }

      .cls-6 {
        opacity: .68;
      }
    </style>
    <linearGradient id="linear-gradient" x1="16.04" y1="160.82" x2="3.64" y2="182.1" gradientTransform="translate(48.89 -138.37) rotate(161.17) scale(1 -1)" gradientUnits="userSpaceOnUse">
      <stop offset="0" stop-color="#f7a97e"/>
      <stop offset="1" stop-color="#e1622f"/>
    </linearGradient>
    <radialGradient id="radial-gradient" cx="1.57" cy="176.91" fx="1.57" fy="176.91" r="14.53" gradientTransform="translate(48.89 -138.37) rotate(161.17) scale(1 -1)" gradientUnits="userSpaceOnUse">
      <stop offset="0" stop-color="#fcf4f1"/>
      <stop offset="1" stop-color="#f7dec8"/>
    </radialGradient>
    <linearGradient id="linear-gradient-2" x1="1162.28" y1="-229.96" x2="1149.88" y2="-208.68" gradientTransform="translate(-1143.96 -138.37) rotate(18.83)" xlink:href="#linear-gradient"/>
    <radialGradient id="radial-gradient-2" cx="1147.81" cy="-213.88" fx="1147.81" fy="-213.88" r="14.53" gradientTransform="translate(-1143.96 -138.37) rotate(18.83)" xlink:href="#radial-gradient"/>
  </defs>
  <g class="cls-10">
    <g id="Layer_2" data-name="Layer 2">
      <g id="Layer_1-2" data-name="Layer 1">
        <g>
          <g>
            <g>
              <path class="cls-8" d="M112.15,45.26l-27.57-4.49c-.22-.04-.37-.25-.34-.47.01-.08,1.19-7.89,2.72-16.84.12-.72.26-1.43.41-2.11.22-1.04.46-2.04.69-2.99,1.5-6.27,2.59-10.8-3.67-17.25-.13-.13-.15-.33-.06-.49.07-.13.21-.21.36-.21.03,0,.06,0,.09,0,.1.02,2.16.49,4.51,2.83-.26-.43-.67-.87-1.32-1.18-.2-.1-.29-.33-.2-.54.07-.15.22-.25.38-.25.05,0,.1,0,.15.03.18.07,3.68,1.49,5.87,4.51-.24-.63-.63-1.35-1.25-2.09-.14-.16-.13-.4.01-.55.08-.09.19-.13.3-.13.09,0,.17.03.25.08.56.42,3.39,2.65,4.13,5.26.13.46,1.03,1.3,2.16,2.35,1.59,1.48,3.78,3.52,5.92,6.37,1.03,1.36,1.97,2.81,2.79,4.33.26.49.6,1.14.91,1.83.44.9.81,1.78,1.13,2.68.43,1.17.81,2.4,1.13,3.64.02.12.04.2.07.28,0,0,.03.1.03.1,0,.03.01.06.02.09.29,1.22.51,2.39.68,3.56l.04.31c.06.47.12.96.16,1.46.22,2.15.29,4.44.19,6.79-.04,1.02-.1,1.88-.18,2.7-.01.11-.07.22-.16.29-.07.06-.16.09-.25.09-.02,0-.04,0-.07,0Z"/>
              <path class="cls-9" d="M84.67.82s2.71.59,5.44,3.99c0-.23-.01-2.16-1.98-3.11,0,0,5.11,2.02,6.8,6.39,0,0,.32-2.23-1.72-4.62.18.14,3.24,2.4,3.98,5.04.36,1.3,4.35,3.79,8.14,8.85.95,1.25,1.89,2.68,2.76,4.28.31.57.61,1.17.89,1.8.4.83.78,1.71,1.12,2.66.41,1.12.79,2.32,1.12,3.6.02.13.06.25.1.39h0c.27,1.15.5,2.33.69,3.59.07.55.15,1.14.19,1.74.22,2.09.29,4.33.19,6.74-.04.87-.09,1.77-.18,2.68l-14.25-2.32-13.18-2.15-.14-.02s1.17-7.78,2.72-16.84c.12-.72.26-1.42.4-2.09,1.67-7.85,4.3-13-3.09-20.62M84.67,0c-.29,0-.57.16-.72.42-.18.32-.12.71.13.97,6.1,6.29,5.04,10.73,3.57,16.87-.23.96-.47,1.96-.69,3.01-.15.7-.29,1.41-.41,2.12-1.53,8.96-2.71,16.77-2.72,16.85-.07.45.24.86.68.94l.14.02,13.18,2.15,14.25,2.32s.09.01.13.01c.18,0,.36-.06.5-.17.18-.14.3-.35.32-.57.08-.83.14-1.72.18-2.73.1-2.37.04-4.68-.19-6.86-.03-.48-.1-.97-.16-1.44l-.04-.31c-.17-1.19-.4-2.36-.68-3.58,0-.05-.01-.09-.03-.13l-.03-.1c-.02-.06-.04-.12-.05-.19,0-.03,0-.05-.02-.08-.32-1.26-.7-2.5-1.14-3.69-.32-.91-.7-1.8-1.15-2.73-.3-.68-.64-1.33-.91-1.83-.83-1.54-1.78-3.01-2.83-4.39-2.16-2.88-4.36-4.92-5.96-6.42-.91-.85-1.95-1.81-2.04-2.16-.78-2.74-3.7-5.04-4.27-5.47-.15-.11-.32-.17-.5-.17-.22,0-.44.09-.6.26-.12.13-.2.29-.22.46-1.91-1.61-3.83-2.38-3.97-2.44-.1-.04-.2-.06-.3-.06-.27,0-.53.13-.68.36-1.46-.96-2.53-1.2-2.6-1.22-.06-.01-.12-.02-.18-.02h0Z"/>
            </g>
            <path class="cls-4" d="M84.64,40.37l.14.02c1.03-2.81,2.08-8.84,3.16-14.4,1.48-7.62,4.6-14.8.59-21.32,0,0,1.75.5,3.12,4.33,0,0,.13-3-.9-4.69,0,0,4.44,2.66,4.42,8.86,0,0,1.38-3.46.2-6.37,0,0,1.75,1.71,1.7,3.57-.04,1.72,14.4,8.53,15.32,31.81.1-2.41.03-4.66-.19-6.74-.04-.59-.13-1.18-.19-1.74-.19-1.27-.42-2.45-.69-3.58h0c-.04-.15-.08-.27-.1-.4-.33-1.28-.7-2.49-1.12-3.6-.34-.94-.72-1.83-1.12-2.66-.28-.63-.59-1.23-.89-1.8-4.34-8.02-10.46-11.52-10.9-13.13-.75-2.64-3.8-4.91-3.98-5.04,2.03,2.39,1.72,4.62,1.72,4.62-1.69-4.37-6.8-6.39-6.8-6.39,1.97.95,1.99,2.88,1.98,3.11-2.73-3.4-5.44-3.99-5.44-3.99,8.03,8.27,4.23,13.63,2.69,22.71-1.54,9.06-2.72,16.84-2.72,16.84Z"/>
            <path class="cls-5" d="M84.64,40.37l.14.02,13.18,2.15,14.25,2.32c.09-.91.14-1.81.18-2.68.1-2.41.03-4.66-.19-6.74-.04-.59-.13-1.18-.19-1.74-.19-1.27-.42-2.45-.69-3.58h0c-.04-.15-.08-.27-.1-.4-.33-1.28-.7-2.49-1.12-3.6-.34-.94-.72-1.83-1.12-2.66-.28-.63-.59-1.23-.89-1.8-.87-1.6-1.81-3.03-2.76-4.28,2.61,6.05,4.61,14.94-5.99,15.55-9.03.53-11.31-5.82-11.59-11.48-.15.67-.28,1.37-.4,2.09-1.54,9.06-2.72,16.84-2.72,16.84Z"/>
          </g>
          <g>
            <g>
              <path class="cls-7" d="M112.17,45.14l-14.25-2.32c-.08-.01-.14-.06-.19-.12-.57-.83-.91-1.34-.91-1.34l-2.09-5.84s-.71-1.75-1.33-3.98c-.51-1.8-1.08-4.4-.96-6.56,0-.06,0-.11,0-.15.06-1.09.14-2.05.2-2.92.19-2.52.33-4.33-.03-6.24-.02-.09.01-.19.08-.26.05-.05.13-.08.2-.08.02,0,.04,0,.06,0,.04,0,.96.2,2,.92,1.04.7,2.27,1.99,2.68,4.22.27-.61.66-1.32,1.12-1.69,0,0,.08-.07.09-.07.56-.4,1.14-2.89,1.38-4.37.02-.11.09-.2.2-.23.03,0,.06-.01.08-.01.08,0,.15.03.21.09.05.05,1.21,1.34,1.58,3.56.23,1.35.11,2.75-.34,4.18.5-.4,1.15-.71,1.94-.71.19,0,.39.02.59.06.79.15,1.52.22,2.17.22.5,0,.96-.05,1.37-.14.71-.15,1.26-.44,1.64-.85.19-.2.33-.43.44-.7.05-.11.15-.18.26-.18.03,0,.07,0,.1.02.14.05.22.21.17.35-.21.66-.67,2-1.41,3.56l-.31.65c-.2.39-.41.77-.62,1.13.02,0,.04,0,.06,0,.01,0,.03,0,.04,0,.02,0,.44.06,1.03.24.23.06.5.15.77.25,1.05.4,2.33,1.16,2.52,2.53.75-.53,1.65-.92,2.66-.93h0c.09,0,.18.04.23.12.05.07.07.17.04.26-.02.07-.56,1.62-1.55,3.37-.59,1.06-1.23,1.97-1.88,2.7-.09.09-.16.16-.23.23l-.12.12c-.06.06-.13.08-.2.08-.05,0-.11-.01-.15-.04.3.3.6.62.9.96.04.04.06.1.07.16.2,1.83.27,3.8.22,5.87-.02.81-.06,1.64-.12,2.49,0,.13-.02.27-.03.42v.14c-.02.12-.03.25-.04.39l-.02.18c0,.08-.05.15-.11.2-.05.04-.11.06-.18.06-.02,0-.03,0-.05,0Z"/>
              <path class="cls-3" d="M100.52,14.39s1.15,1.25,1.51,3.42c.25,1.49.13,3.42-1,5.67.37-.64,1.33-1.96,2.88-1.96.17,0,.35.02.54.05.7.13,1.47.23,2.23.23.49,0,.98-.04,1.43-.14.71-.15,1.33-.45,1.79-.94.2-.22.37-.48.5-.78-.23.74-.69,2.05-1.39,3.52,0,0,0,0,0,.02-.1.2-.2.42-.3.63-1.27,2.47-3.2,5.15-5.85,6,0,0,3.08-.26,5.37-4.16,0,0,0-.02.02-.05.06-.08.11-.17.16-.27,0,0,.41.06.99.23.23.06.49.14.75.25,1.04.4,2.18,1.12,2.34,2.32,0,0-.59.38-1.22,1.28-.37.48-.73,1.14-1.01,1.98-.01.05-.04.11-.05.17.04-.09.16-.31.35-.61.2-.31.47-.72.8-1.13h0c.91-1.13,2.31-2.37,4.06-2.38,0,0-.54,1.57-1.53,3.32-.5.9-1.12,1.84-1.85,2.65-.12.11-.23.23-.34.35,0,0-1.83-1.73-4.69-3.02.2.13,2.83,1.71,5.22,4.4.2,1.82.27,3.77.22,5.83-.02.8-.06,1.63-.12,2.47,0,.19-.03.37-.04.56,0,.19-.03.38-.05.57l-14.25-2.32c-.57-.83-.9-1.33-.9-1.33l-2.06-5.78s-.7-1.72-1.32-3.96c-.57-2.01-1.07-4.46-.95-6.47,0-.06,0-.11,0-.16.24-4.15.67-6.6.17-9.22,0,0,.89.18,1.89.87,1.2.82,2.56,2.36,2.69,5.16,0,0,.62-1.97,1.46-2.65.02-.02.04-.04.07-.06.88-.63,1.5-4.56,1.5-4.56M100.52,13.82c-.06,0-.11,0-.17.02-.21.06-.36.24-.4.46-.28,1.79-.86,3.89-1.27,4.19-.04.02-.08.06-.12.1-.31.26-.59.66-.83,1.07-.54-1.86-1.66-2.98-2.62-3.63-1.08-.74-2.06-.95-2.1-.96-.04,0-.08-.01-.11-.01-.15,0-.29.06-.4.16-.14.13-.2.33-.16.51.35,1.87.21,3.67.02,6.17-.07.88-.14,1.84-.2,2.91,0,.07,0,.11,0,.15-.12,2.21.46,4.84.97,6.66.63,2.25,1.32,3.95,1.35,4.02l2.05,5.76s.04.08.06.12c0,0,.34.51.91,1.35.09.13.22.21.38.24l14.25,2.32s.06,0,.09,0c.13,0,.25-.04.35-.12.13-.1.2-.24.22-.4l.02-.18c.01-.14.03-.27.03-.4v-.11c.02-.15.03-.3.04-.45.06-.78.1-1.59.12-2.48.05-2.08-.02-4.07-.22-5.91-.01-.12-.06-.23-.14-.32-.19-.21-.37-.41-.56-.61,0,0,0,0,0,0l.12-.13c.07-.07.13-.14.2-.21.71-.78,1.35-1.7,1.96-2.79,1-1.77,1.55-3.35,1.57-3.41.06-.17.03-.37-.08-.52-.11-.15-.28-.24-.46-.24h0c-.92,0-1.75.31-2.47.75-.31-.99-1.2-1.79-2.6-2.33-.3-.11-.58-.2-.82-.27-.29-.09-.54-.14-.73-.18.14-.25.28-.5.41-.77l.16-.34.15-.3c.76-1.59,1.22-2.95,1.43-3.62.09-.29-.06-.6-.35-.71-.06-.02-.13-.03-.19-.03-.22,0-.44.13-.53.35-.1.23-.22.44-.39.62-.34.37-.84.63-1.49.77-.39.09-.83.13-1.31.13-.63,0-1.34-.07-2.12-.22-.21-.04-.43-.06-.64-.06-.55,0-1.04.14-1.46.35.3-1.22.34-2.42.15-3.58-.38-2.3-1.6-3.65-1.65-3.71-.11-.12-.26-.18-.42-.18h0Z"/>
            </g>
            <path class="cls-4" d="M111.82,28.21c-1.01.65-1.6,3.48-1.6,3.48.27-.83.64-1.49,1.01-1.98.63-.91,1.22-1.28,1.22-1.28-.15-1.2-1.3-1.92-2.34-2.32-.92-.36-1.74-.47-1.74-.47-.05.1-.1.19-.16.27-.01.03-.02.05-.02.05,2.76.14,3.63,2.26,3.63,2.26Z"/>
            <path class="cls-4" d="M106.25,30.57l4.91,4.94,1.1,8.78c.26-3.23.23-6.18-.06-8.86-2.39-2.7-5.02-4.27-5.22-4.4,2.86,1.29,4.69,3.02,4.69,3.02.12-.12.22-.24.34-.35,2.13-2.37,3.38-5.97,3.38-5.97-1.75.01-3.15,1.25-4.06,2.37h0c-.34.43-.61.83-.8,1.14,1.63-2.21,4.08-2.91,4.08-2.91l-3.07,4.79-5.28-2.55Z"/>
            <path class="cls-4" d="M92.74,24.84c.84-3.56.9-8.24.9-8.24,3.31,1.08,3.8,6.18,3.83,6.49.59-2.63,1.54-3.25,2.13-3.79.6-.54,1.18-3.5,1.18-3.5,1.89,4.36-.2,8.43-.33,8.67,2.22-2.71,3.3-2.44,5.6-2.2,2.3.24,3.17-.58,3.22-.6.02.05-.3,1.3-.59,2.43.11-.22.21-.44.31-.65.7-1.46,1.16-2.78,1.39-3.52-.41.98-1.26,1.5-2.28,1.72-1.14.25-2.49.13-3.66-.08-1.86-.35-3,1.2-3.42,1.91,2.78-5.51-.51-9.08-.51-9.08,0,0-.62,3.93-1.5,4.56-.87.63-1.53,2.7-1.53,2.7-.25-5.14-4.58-6.03-4.58-6.03.5,2.62.06,5.07-.17,9.22Z"/>
            <path class="cls-6" d="M97.8,25.88c-.09-2.94.58-5.38,1.15-6.87-.84.68-1.46,2.65-1.46,2.65-.14-2.81-1.49-4.35-2.69-5.16,1.85,2.35,2.66,6.76,3,9.39Z"/>
            <path class="cls-6" d="M97.81,25.92c.02.67.08,1.37.2,2.08,0,0-.04-.83-.2-2.08Z"/>
            <path class="cls-6" d="M99.02,25.37c.68-.64,2.71-2.46,4.17-2.8,1.53-.35,5.53-.21,6.69-1.85-.45.49-1.08.78-1.79.94-1.14.25-2.49.13-3.66-.08-1.86-.35-3,1.2-3.42,1.91,1.13-2.25,1.26-4.17,1-5.67-.12,1.91-.69,5.18-3,7.56Z"/>
            <path class="cls-6" d="M98.11,31.75s7.41.12,11.25-5.89c-.58-.17-.99-.23-.99-.23-.05.1-.1.19-.16.27-.01.03-.02.05-.02.05-2.29,3.9-5.37,4.16-5.37,4.16,2.65-.86,4.58-3.54,5.85-6,.1-.21.2-.43.3-.63-.23.37-4.32,6.76-10.87,8.28Z"/>
            <path class="cls-6" d="M112.3,43.74c.22-3.01.18-5.78-.1-8.3-2.39-2.7-5.02-4.27-5.22-4.4,2.86,1.29,4.69,3.02,4.69,3.02.12-.12.22-.24.34-.35.73-.81,1.35-1.75,1.85-2.65-1,.94-3.27,1.85-7.98-.91.24.17,5.2,3.65,6.42,13.59Z"/>
            <path class="cls-6" d="M95.01,35.43l2.06,5.78s.33.51.9,1.33l14.25,2.32c.02-.19.04-.38.05-.57.02-.19.03-.37.04-.56.06-.84.1-1.67.12-2.47-7.59.3-7.17-10.45-7.16-10.81-2.12,1.82-4.77.72-4.77.72,4.29-1.9,4.38-6.18,4.38-6.18-1.6,2-2.94.5-5.33,1.9-1.94,1.13-2.51,2.4-2.65,2.83.98-3.55-2.05-6.64-2.05-6.64,0,0,1.49,2.62-.14,5.72-.48.91-.8,1.83-1.02,2.66.63,2.24,1.32,3.96,1.32,3.96Z"/>
          </g>
          <path class="cls-9" d="M93.52,7.81c-.64-.56-1.32-1.16-2.09-1.44-.19-.07-.38-.05-.47.06-.1.11-.11.33-.1.52.02.4.13.81.26,1.22.53,1.61,1.21,3.23,1.64,4.92.45,1.69.66,3.45.68,5.2.04,1.76-.25,3.5-.29,5.18-.17,3.4.33,6.82,1.19,10.13.86,3.31,2.13,6.54,3.87,9.52-2.03-2.81-3.47-6.02-4.48-9.35-1-3.33-1.51-6.83-1.4-10.33.08-1.77.39-3.45.37-5.15.01-1.7-.21-3.39-.55-5.06-.35-1.67-.95-3.28-1.42-4.96-.1-.43-.19-.86-.18-1.32.01-.22,0-.48.21-.7.21-.21.53-.17.73-.09.84.37,1.43,1.02,2.02,1.65Z"/>
        </g>
        <g>
          <g>
            <g>
              <path class="cls-2" d="M3.75,45.27c-.09,0-.18-.03-.25-.09-.09-.07-.15-.17-.16-.29-.08-.82-.14-1.71-.18-2.7-.1-2.35-.04-4.64.19-6.8.03-.47.09-.96.15-1.42l.04-.32c.17-1.19.4-2.35.68-3.57,0-.03,0-.06.01-.09l.03-.1c.02-.08.05-.16.06-.24.32-1.28.7-2.51,1.14-3.68.32-.89.7-1.8,1.14-2.69.3-.67.62-1.29.9-1.82.82-1.52,1.76-2.97,2.79-4.33,2.14-2.85,4.32-4.88,5.92-6.36,1.13-1.06,2.03-1.89,2.16-2.35.74-2.62,3.57-4.84,4.13-5.26.07-.06.16-.08.25-.08.11,0,.22.04.3.13.14.15.15.39.02.55-.62.73-1.01,1.45-1.25,2.09,2.19-3.03,5.7-4.44,5.87-4.51.05-.02.1-.03.15-.03.16,0,.31.09.38.25.09.2,0,.44-.2.54-.65.31-1.06.75-1.32,1.18C29.04.92,31.1.44,31.2.42c.03,0,.06,0,.09,0,.15,0,.29.08.36.21.09.16.06.36-.06.49-6.26,6.45-5.18,10.98-3.67,17.25.23.96.47,1.95.69,3,.15.68.28,1.38.41,2.11,1.53,8.96,2.71,16.77,2.72,16.84.03.22-.12.43-.34.47l-27.57,4.49s-.04,0-.07,0Z"/>
              <path class="cls-9" d="M31.29.82c-7.4,7.62-4.76,12.77-3.09,20.62.15.67.28,1.37.4,2.09,1.54,9.06,2.72,16.84,2.72,16.84l-.14.02-13.18,2.15-14.25,2.32c-.09-.91-.14-1.81-.18-2.68-.1-2.41-.03-4.66.19-6.74.04-.59.13-1.18.19-1.74.19-1.27.42-2.45.69-3.58h0c.04-.15.08-.27.1-.4.33-1.28.7-2.49,1.12-3.6.34-.94.72-1.83,1.12-2.66.28-.63.59-1.23.89-1.8.87-1.6,1.81-3.03,2.76-4.28,3.8-5.06,7.78-7.56,8.14-8.85.75-2.64,3.8-4.91,3.98-5.04-2.03,2.39-1.72,4.62-1.72,4.62,1.69-4.37,6.8-6.39,6.8-6.39-1.97.95-1.99,2.88-1.98,3.11,2.73-3.4,5.44-3.99,5.44-3.99M27.83,1.7h0M22.75,3.48h0M31.29,0c-.06,0-.12,0-.18.02-.07.02-1.14.26-2.6,1.22-.14-.21-.38-.35-.65-.36-.01,0-.02,0-.03,0-.05,0-.1,0-.15.01-.06.01-.12.03-.18.05-.25.1-2.1.88-3.94,2.42-.05-.4-.4-.72-.81-.72h0s0,0,0,0c-.03,0-.05,0-.08,0h0s0,0,0,0c-.16.01-.3.07-.42.17-.6.45-3.5,2.74-4.27,5.47-.1.35-1.13,1.32-2.05,2.16-1.61,1.49-3.8,3.54-5.97,6.42-1.05,1.37-2,2.85-2.82,4.38-.27.5-.61,1.15-.92,1.86-.44.9-.81,1.79-1.14,2.71-.44,1.18-.82,2.42-1.14,3.68,0,.03-.01.05-.02.08,0,.06-.03.12-.05.19l-.03.1s-.02.09-.03.14c-.29,1.22-.51,2.39-.68,3.56l-.04.33c-.06.47-.12.97-.16,1.47-.23,2.16-.29,4.47-.19,6.84.04,1,.1,1.9.18,2.73.02.23.14.43.32.57.15.11.32.17.5.17.04,0,.09,0,.13-.01l14.25-2.32,13.18-2.15.14-.02c.45-.07.75-.49.68-.94-.01-.08-1.19-7.89-2.72-16.85-.12-.71-.26-1.43-.41-2.13-.22-1.04-.46-2.04-.69-3-1.47-6.14-2.53-10.58,3.57-16.87.25-.26.31-.66.13-.97-.15-.27-.43-.42-.72-.42h0ZM31.29,1.65h0,0Z"/>
            </g>
            <path class="cls-4" d="M31.32,40.37l-.14.02c-1.03-2.81-2.08-8.84-3.16-14.4-1.48-7.62-4.6-14.8-.59-21.32,0,0-1.75.5-3.12,4.33,0,0-.13-3,.9-4.69,0,0-4.44,2.66-4.42,8.86,0,0-1.38-3.46-.2-6.37,0,0-1.75,1.71-1.7,3.57.04,1.72-14.4,8.53-15.32,31.81-.1-2.41-.03-4.66.19-6.74.04-.59.13-1.18.19-1.74.19-1.27.42-2.45.69-3.58h0c.04-.15.08-.27.1-.4.33-1.28.7-2.49,1.12-3.6.34-.94.72-1.83,1.12-2.66.28-.63.59-1.23.89-1.8,4.34-8.02,10.46-11.52,10.9-13.13.75-2.64,3.8-4.91,3.98-5.04-2.03,2.39-1.72,4.62-1.72,4.62,1.69-4.37,6.8-6.39,6.8-6.39-1.97.95-1.99,2.88-1.98,3.11,2.73-3.4,5.44-3.99,5.44-3.99-8.03,8.27-4.23,13.63-2.69,22.71,1.54,9.06,2.72,16.84,2.72,16.84Z"/>
            <path class="cls-5" d="M31.32,40.37l-.14.02-13.18,2.15-14.25,2.32c-.09-.91-.14-1.81-.18-2.68-.1-2.41-.03-4.66.19-6.74.04-.59.13-1.18.19-1.74.19-1.27.42-2.45.69-3.58h0c.04-.15.08-.27.1-.4.33-1.28.7-2.49,1.12-3.6.34-.94.72-1.83,1.12-2.66.28-.63.59-1.23.89-1.8.87-1.6,1.81-3.03,2.76-4.28-2.61,6.05-4.61,14.94,5.99,15.55,9.03.53,11.31-5.82,11.59-11.48.15.67.28,1.37.4,2.09,1.54,9.06,2.72,16.84,2.72,16.84Z"/>
          </g>
          <g>
            <g>
              <path class="cls-1" d="M3.75,45.14c-.06,0-.12-.02-.18-.06-.06-.05-.1-.12-.11-.2l-.02-.18c-.01-.13-.02-.27-.03-.4v-.11c-.02-.15-.03-.3-.04-.45-.06-.84-.1-1.67-.12-2.48-.05-2.07.02-4.05.22-5.87,0-.06.03-.11.07-.16.3-.34.6-.66.9-.96-.05.03-.1.04-.15.04-.07,0-.15-.03-.2-.08l-.12-.12c-.07-.07-.14-.15-.22-.22-.67-.75-1.31-1.65-1.9-2.72-.99-1.75-1.53-3.3-1.55-3.37-.03-.09-.02-.18.04-.26.05-.08.14-.12.23-.12h0c1.01,0,1.91.4,2.66.93.19-1.37,1.47-2.13,2.52-2.53.28-.11.55-.19.78-.25.58-.17,1-.23,1.02-.24.01,0,.03,0,.04,0,.02,0,.04,0,.06,0-.21-.36-.42-.73-.62-1.12l-.31-.63c-.75-1.57-1.21-2.92-1.42-3.58-.05-.15.03-.3.17-.35.03-.01.06-.02.1-.02.11,0,.22.07.26.18.11.27.26.49.44.7.38.41.93.7,1.64.85.41.09.87.14,1.37.14.65,0,1.38-.08,2.17-.22.2-.04.4-.06.59-.06.79,0,1.44.31,1.94.71-.46-1.42-.57-2.82-.34-4.18.37-2.22,1.53-3.51,1.58-3.56.05-.06.13-.09.21-.09.03,0,.06,0,.08.01.1.03.18.12.2.23.23,1.47.81,3.97,1.38,4.37.01,0,.1.08.11.09.45.36.83,1.06,1.1,1.67.42-2.23,1.65-3.51,2.68-4.22,1.03-.71,1.96-.91,1.99-.91.02,0,.04,0,.06,0,.07,0,.15.03.2.08.07.07.1.16.08.26-.36,1.91-.22,3.73-.02,6.25.07.88.14,1.83.2,2.9,0,.06,0,.11,0,.16.12,2.17-.46,4.77-.96,6.57-.62,2.23-1.33,3.97-1.34,3.99l-2.05,5.77c-.03.06-.36.57-.94,1.4-.04.06-.11.11-.19.12l-14.25,2.32s-.03,0-.05,0Z"/>
              <path class="cls-3" d="M15.44,14.39s.62,3.93,1.5,4.56c.03.02.05.03.07.06.84.68,1.46,2.65,1.46,2.65.14-2.81,1.49-4.35,2.69-5.16,1-.69,1.89-.87,1.89-.87-.5,2.62-.06,5.07.17,9.22,0,.05,0,.1,0,.16.11,2.01-.39,4.45-.95,6.47-.63,2.24-1.32,3.96-1.32,3.96l-2.06,5.78s-.33.51-.9,1.33l-14.25,2.32c-.02-.19-.04-.38-.05-.57-.02-.19-.03-.37-.04-.56-.06-.84-.1-1.67-.12-2.47-.05-2.07.02-4.01.22-5.83,2.39-2.7,5.02-4.27,5.22-4.4-2.86,1.29-4.69,3.02-4.69,3.02-.12-.12-.22-.24-.34-.35-.73-.81-1.35-1.75-1.85-2.65-.99-1.75-1.53-3.32-1.53-3.32,1.75.01,3.15,1.25,4.06,2.37h0c.34.43.61.83.8,1.14.18.3.31.53.35.61-.01-.06-.03-.11-.05-.17-.27-.83-.64-1.49-1.01-1.98-.63-.91-1.22-1.28-1.22-1.28.15-1.2,1.3-1.92,2.34-2.32.27-.1.53-.19.75-.25.58-.17.99-.23.99-.23.05.1.1.19.16.27.01.03.02.05.02.05,2.29,3.9,5.37,4.16,5.37,4.16-2.65-.86-4.58-3.54-5.85-6-.1-.21-.2-.43-.3-.63,0,0,0-.02,0-.02-.7-1.46-1.16-2.78-1.39-3.52.13.31.29.56.5.78.45.49,1.08.78,1.79.94.45.1.94.14,1.43.14.75,0,1.52-.1,2.23-.23.19-.04.37-.05.54-.05,1.54,0,2.51,1.32,2.88,1.96-1.13-2.25-1.26-4.17-1-5.67.36-2.17,1.51-3.42,1.51-3.42M15.44,13.82c-.16,0-.31.06-.42.18-.05.06-1.27,1.4-1.65,3.71-.2,1.17-.15,2.37.15,3.58-.42-.21-.91-.35-1.46-.35-.21,0-.43.02-.64.06-.77.14-1.49.22-2.12.22-.48,0-.92-.04-1.31-.13-.65-.14-1.15-.4-1.49-.77-.16-.18-.29-.38-.39-.61-.09-.22-.3-.35-.53-.35-.06,0-.13.01-.19.03-.29.1-.44.42-.35.71.21.67.68,2.03,1.42,3.59l.16.33.16.33c.14.27.28.52.42.78-.19.04-.45.1-.75.19-.22.06-.49.14-.79.26-1.41.54-2.3,1.34-2.6,2.33-.72-.44-1.54-.74-2.47-.75h0c-.18,0-.36.09-.46.24-.11.15-.14.34-.08.52.02.07.57,1.64,1.57,3.42.6,1.08,1.25,2,1.92,2.75.11.1.17.17.24.24l.12.13s0,0,0,0c-.19.2-.37.4-.56.61-.08.09-.13.2-.14.32-.2,1.84-.27,3.83-.22,5.91.02.89.06,1.71.12,2.5,0,.13.02.28.03.43v.13c.02.11.03.25.04.38l.02.18c.01.16.09.3.22.4.1.08.22.12.35.12.03,0,.06,0,.09,0l14.25-2.32c.15-.02.29-.11.38-.24.57-.83.91-1.35.91-1.35.02-.04.04-.08.06-.12l2.06-5.78s.71-1.75,1.34-3.99c.51-1.82,1.1-4.45.97-6.65,0-.05,0-.09,0-.13-.06-1.11-.14-2.07-.2-2.95-.19-2.49-.33-4.3.02-6.17.04-.19-.02-.38-.16-.51-.11-.11-.25-.16-.4-.16-.04,0-.08,0-.11.01-.04,0-1.02.21-2.1.96-.96.65-2.07,1.77-2.62,3.63-.23-.41-.51-.81-.83-1.07-.04-.04-.09-.08-.14-.11-.39-.28-.96-2.38-1.24-4.17-.03-.22-.19-.39-.4-.46-.05-.02-.11-.02-.17-.02h0Z"/>
            </g>
            <path class="cls-4" d="M4.14,28.21c1.01.65,1.6,3.48,1.6,3.48-.27-.83-.64-1.49-1.01-1.98-.63-.91-1.22-1.28-1.22-1.28.15-1.2,1.3-1.92,2.34-2.32.92-.36,1.74-.47,1.74-.47.05.1.1.19.16.27.01.03.02.05.02.05-2.76.14-3.63,2.26-3.63,2.26Z"/>
            <path class="cls-4" d="M9.71,30.57l-4.91,4.94-1.1,8.78c-.26-3.23-.23-6.18.06-8.86,2.39-2.7,5.02-4.27,5.22-4.4-2.86,1.29-4.69,3.02-4.69,3.02-.12-.12-.22-.24-.34-.35-2.13-2.37-3.38-5.97-3.38-5.97,1.75.01,3.15,1.25,4.06,2.37h0c.34.43.61.83.8,1.14-1.63-2.21-4.08-2.91-4.08-2.91l3.07,4.79,5.28-2.55Z"/>
            <path class="cls-4" d="M23.22,24.84c-.84-3.56-.9-8.24-.9-8.24-3.31,1.08-3.8,6.18-3.83,6.49-.59-2.63-1.54-3.25-2.13-3.79-.6-.54-1.18-3.5-1.18-3.5-1.89,4.36.2,8.43.33,8.67-2.22-2.71-3.3-2.44-5.6-2.2-2.3.24-3.17-.58-3.22-.6-.02.05.3,1.3.59,2.43-.11-.22-.21-.44-.31-.65-.7-1.46-1.16-2.78-1.39-3.52.41.98,1.26,1.5,2.28,1.72,1.14.25,2.49.13,3.66-.08,1.86-.35,3,1.2,3.42,1.91-2.78-5.51.51-9.08.51-9.08,0,0,.62,3.93,1.5,4.56.87.63,1.53,2.7,1.53,2.7.25-5.14,4.58-6.03,4.58-6.03-.5,2.62-.06,5.07.17,9.22Z"/>
            <path class="cls-6" d="M18.15,25.88c.09-2.94-.58-5.38-1.15-6.87.84.68,1.46,2.65,1.46,2.65.14-2.81,1.49-4.35,2.69-5.16-1.85,2.35-2.66,6.76-3,9.39Z"/>
            <path class="cls-6" d="M18.15,25.92c-.02.67-.08,1.37-.2,2.08,0,0,.04-.83.2-2.08Z"/>
            <path class="cls-6" d="M16.93,25.37c-.68-.64-2.71-2.46-4.17-2.8-1.53-.35-5.53-.21-6.69-1.85.45.49,1.08.78,1.79.94,1.14.25,2.49.13,3.66-.08,1.86-.35,3,1.2,3.42,1.91-1.13-2.25-1.26-4.17-1-5.67.12,1.91.69,5.18,3,7.56Z"/>
            <path class="cls-6" d="M17.85,31.75s-7.41.12-11.25-5.89c.58-.17.99-.23.99-.23.05.1.1.19.16.27.01.03.02.05.02.05,2.29,3.9,5.37,4.16,5.37,4.16-2.65-.86-4.58-3.54-5.85-6-.1-.21-.2-.43-.3-.63.23.37,4.32,6.76,10.87,8.28Z"/>
            <path class="cls-6" d="M3.66,43.74c-.22-3.01-.18-5.78.1-8.3,2.39-2.7,5.02-4.27,5.22-4.4-2.86,1.29-4.69,3.02-4.69,3.02-.12-.12-.22-.24-.34-.35-.73-.81-1.35-1.75-1.85-2.65,1,.94,3.27,1.85,7.98-.91-.24.17-5.2,3.65-6.42,13.59Z"/>
            <path class="cls-6" d="M20.95,35.43l-2.06,5.78s-.33.51-.9,1.33l-14.25,2.32c-.02-.19-.04-.38-.05-.57-.02-.19-.03-.37-.04-.56-.06-.84-.1-1.67-.12-2.47,7.59.3,7.17-10.45,7.16-10.81,2.12,1.82,4.77.72,4.77.72-4.29-1.9-4.38-6.18-4.38-6.18,1.6,2,2.94.5,5.33,1.9,1.94,1.13,2.51,2.4,2.65,2.83-.98-3.55,2.05-6.64,2.05-6.64,0,0-1.49,2.62.14,5.72.48.91.8,1.83,1.02,2.66-.63,2.24-1.32,3.96-1.32,3.96Z"/>
          </g>
          <path class="cls-9" d="M22.44,7.81c.59-.63,1.18-1.28,2.02-1.65.2-.09.52-.13.73.09.2.22.2.48.21.7.01.46-.08.9-.18,1.32-.47,1.69-1.07,3.29-1.42,4.96-.34,1.67-.56,3.36-.55,5.06-.02,1.7.29,3.37.37,5.15.11,3.5-.4,7-1.4,10.33-1,3.33-2.44,6.54-4.48,9.35,1.74-2.99,3-6.21,3.87-9.52.86-3.31,1.36-6.73,1.19-10.13-.05-1.68-.34-3.42-.29-5.18.02-1.75.23-3.51.68-5.2.43-1.69,1.11-3.31,1.64-4.92.13-.4.24-.81.26-1.22.01-.19,0-.41-.1-.52-.08-.11-.27-.13-.47-.06-.77.28-1.45.88-2.09,1.44Z"/>
        </g>
      </g>
    </g>
  </g>
</svg>