<?xml version="1.0" encoding="UTF-8"?>
<svg xmlns="http://www.w3.org/2000/svg" xmlns:xlink="http://www.w3.org/1999/xlink" viewBox="0 0 42.54 24.23">
  <defs>
    <style>
      .cls-1 {
        fill: #521f30;
      }

      .cls-2 {
        fill: #ecd1b8;
      }

      .cls-3 {
        fill: url(#radial-gradient-6);
      }

      .cls-4 {
        fill: url(#radial-gradient-5);
      }

      .cls-5 {
        fill: url(#radial-gradient-4);
      }

      .cls-6 {
        fill: url(#radial-gradient-3);
      }

      .cls-7 {
        fill: url(#radial-gradient-2);
      }

      .cls-8 {
        fill: #fcfcfc;
        opacity: .39;
      }

      .cls-8, .cls-9, .cls-10, .cls-11, .cls-12, .cls-13, .cls-14, .cls-15, .cls-16 {
        mix-blend-mode: overlay;
      }

      .cls-17 {
        fill: url(#linear-gradient-8);
      }

      .cls-18 {
        fill: url(#linear-gradient-7);
      }

      .cls-19 {
        fill: url(#linear-gradient-5);
      }

      .cls-20 {
        fill: url(#linear-gradient-6);
      }

      .cls-21 {
        fill: url(#linear-gradient-4);
      }

      .cls-22 {
        fill: url(#linear-gradient-3);
      }

      .cls-23 {
        fill: url(#linear-gradient-2);
      }

      .cls-24 {
        fill: #b57d69;
      }

      .cls-25, .cls-26, .cls-27, .cls-28, .cls-29 {
        stroke-linejoin: round;
      }

      .cls-25, .cls-26, .cls-27, .cls-29 {
        stroke-linecap: round;
      }

      .cls-25, .cls-30, .cls-31, .cls-28, .cls-29 {
        fill: none;
      }

      .cls-25, .cls-30, .cls-28 {
        stroke: #370000;
      }

      .cls-25, .cls-28 {
        stroke-width: .11px;
      }

      .cls-9 {
        opacity: .53;
      }

      .cls-9, .cls-32 {
        fill: #fff;
      }

      .cls-33 {
        fill: url(#radial-gradient);
      }

      .cls-34 {
        fill: url(#linear-gradient);
      }

      .cls-35 {
        fill: #8c473e;
      }

      .cls-26 {
        fill: url(#linear-gradient-9);
      }

      .cls-26, .cls-27 {
        stroke: #8c473e;
        stroke-width: .07px;
      }

      .cls-30, .cls-31 {
        stroke-miterlimit: 10;
        stroke-width: .22px;
      }

      .cls-36 {
        isolation: isolate;
      }

      .cls-27 {
        fill: url(#linear-gradient-10);
      }

      .cls-37 {
        fill: #662416;
      }

      .cls-38 {
        fill: url(#linear-gradient-11);
      }

      .cls-39 {
        fill: url(#linear-gradient-12);
      }

      .cls-40 {
        fill: #151726;
      }

      .cls-41 {
        fill: #824048;
      }

      .cls-31 {
        stroke: #000;
      }

      .cls-11 {
        opacity: .26;
      }

      .cls-12 {
        opacity: .35;
      }

      .cls-13 {
        opacity: .45;
      }

      .cls-14 {
        opacity: .41;
      }

      .cls-15 {
        opacity: .24;
      }

      .cls-16 {
        opacity: .71;
      }

      .cls-42 {
        fill: #42221e;
      }

      .cls-43 {
        fill: #0c0e17;
      }

      .cls-44 {
        fill: #370000;
      }

      .cls-29 {
        stroke: #42221e;
        stroke-width: .04px;
      }

      .cls-45 {
        fill: #ffe3c7;
      }
    </style>
    <radialGradient id="radial-gradient" cx="22.54" cy="45.34" fx="22.54" fy="45.34" r="27.69" gradientTransform="translate(0 -31.94) scale(1 .9)" gradientUnits="userSpaceOnUse">
      <stop offset="0" stop-color="#fcf4f1"/>
      <stop offset="1" stop-color="#f7dec8"/>
    </radialGradient>
    <linearGradient id="linear-gradient" x1="188.94" y1="45.41" x2="191.31" y2="45.41" gradientTransform="translate(-129.85 -109.34) rotate(24.48)" gradientUnits="userSpaceOnUse">
      <stop offset="0" stop-color="#f7d8c7"/>
      <stop offset="1" stop-color="#ec8147"/>
    </linearGradient>
    <linearGradient id="linear-gradient-2" x1="21.55" y1="9.21" x2="22.17" y2="9.21" gradientUnits="userSpaceOnUse">
      <stop offset="0" stop-color="#f7d8c7"/>
      <stop offset="1" stop-color="#ec8477"/>
    </linearGradient>
    <linearGradient id="linear-gradient-3" x1="21.51" y1="9.05" x2="23.04" y2="9.74" gradientTransform="matrix(1,0,0,1,0,0)" xlink:href="#linear-gradient"/>
    <linearGradient id="linear-gradient-4" x1="21.41" y1="10.14" x2="23.43" y2="11.05" gradientTransform="matrix(1,0,0,1,0,0)" xlink:href="#linear-gradient"/>
    <linearGradient id="linear-gradient-5" x1="22.05" y1="9.25" x2="22.84" y2="9.25" xlink:href="#linear-gradient-2"/>
    <linearGradient id="linear-gradient-6" x1="22" y1="9.04" x2="23.93" y2="9.92" gradientTransform="matrix(1,0,0,1,0,0)" xlink:href="#linear-gradient"/>
    <linearGradient id="linear-gradient-7" x1="18.09" y1="10.95" x2="24.03" y2="11.54" xlink:href="#linear-gradient-2"/>
    <linearGradient id="linear-gradient-8" x1="18" y1="11.3" x2="23.92" y2="11.89" xlink:href="#linear-gradient-2"/>
    <linearGradient id="linear-gradient-9" x1="23.28" y1="11.8" x2="23.28" y2="11.8" xlink:href="#linear-gradient-2"/>
    <linearGradient id="linear-gradient-10" x1="24.6" y1="12.04" x2="24.6" y2="12.04" xlink:href="#linear-gradient-2"/>
    <radialGradient id="radial-gradient-2" cx="18.97" cy="48.49" fx="18.97" fy="48.49" r=".42" gradientTransform="translate(0 -31.94) scale(1 .9)" gradientUnits="userSpaceOnUse">
      <stop offset="0" stop-color="#f7b28d"/>
      <stop offset="1" stop-color="#8a4e45"/>
    </radialGradient>
    <radialGradient id="radial-gradient-3" cx="19.74" cy="48.54" fx="19.74" fy="48.54" r=".34" xlink:href="#radial-gradient-2"/>
    <radialGradient id="radial-gradient-4" cx="20.36" cy="48.59" fx="20.36" fy="48.59" r=".27" xlink:href="#radial-gradient-2"/>
    <radialGradient id="radial-gradient-5" cx="20.87" cy="48.63" fx="20.87" fy="48.63" r=".22" xlink:href="#radial-gradient-2"/>
    <linearGradient id="linear-gradient-11" x1="19.67" y1="11.26" x2="16.75" y2="12.14" gradientUnits="userSpaceOnUse">
      <stop offset="0" stop-color="#f7b28d"/>
      <stop offset="1" stop-color="#8a4e45"/>
    </linearGradient>
    <linearGradient id="linear-gradient-12" x1="19.07" y1="8.16" x2="19.56" y2="9.82" xlink:href="#linear-gradient-2"/>
    <radialGradient id="radial-gradient-6" cx="17.96" cy="47.42" fx="17.96" fy="47.42" r=".59" gradientTransform="translate(0 -31.94) scale(1 .9)" gradientUnits="userSpaceOnUse">
      <stop offset="0" stop-color="#f7d8c7"/>
      <stop offset="1" stop-color="#ec8477"/>
    </radialGradient>
  </defs>
  <g class="cls-36">
    <g id="Layer_2" data-name="Layer 2">
      <g id="Layer_1-2" data-name="Layer 1">
        <g>
          <g>
            <g>
              <path class="cls-40" d="M10.17,23.74c-1.81,0-3.48-.66-4.99-1.95-.69-.6-1.2-1.2-1.51-1.6-.26-.34-.5-.67-.68-.97,0-.01-.02-.02-.03-.04-.51-.79-.77-1.38-.78-1.4-.09-.21-.03-.44.15-.58,4.71-3.72,10.64-5.6,17.62-5.6,10.97,0,20.87,4.75,20.97,4.8.21.11.32.35.26.58-.01.05-.34,1.17-1.13,2.46-.13.21-.28.45-.44.68-.09.13-.19.26-.29.4-1.42,1.84-3.13,2.8-5.1,2.87-.17,0-.33,0-.49,0-2.19,0-4.05-.47-5.85-.92-1.83-.46-3.72-.93-6-.93-.15,0-.3,0-.45,0-2.68.07-3.71.42-5.01.87-1.15.4-2.46.84-5.12,1.24-.37.05-.75.08-1.11.08Z"/>
              <path class="cls-43" d="M19.94,12.08c10.98,0,20.75,4.75,20.75,4.75,0,0-.32,1.09-1.08,2.34-.12.21-.27.43-.42.66-.09.13-.18.26-.28.39-1.03,1.34-2.57,2.6-4.72,2.67-.16,0-.32,0-.47,0-4.32,0-7.25-1.85-11.85-1.85-.15,0-.31,0-.47,0-5.06.13-4.43,1.26-10.2,2.12-.36.05-.7.08-1.04.08-1.93,0-3.49-.82-4.67-1.83-.55-.48-1.05-1.03-1.44-1.53-.26-.34-.49-.67-.68-.97h0c-.49-.77-.74-1.34-.74-1.34,5.25-4.15,11.46-5.5,17.31-5.5M19.94,11.1h0c-7.1,0-13.13,1.92-17.92,5.71-.35.28-.47.76-.29,1.17.01.03.28.64.81,1.47.01.02.02.03.03.05.19.29.42.63.7.99.33.42.87,1.05,1.58,1.67,1.6,1.38,3.39,2.08,5.32,2.08.39,0,.78-.03,1.18-.09,2.72-.41,4.1-.88,5.21-1.26,1.31-.45,2.26-.78,4.87-.84.15,0,.3,0,.44,0,2.22,0,4,.45,5.88.92,1.83.46,3.72.93,5.97.93.17,0,.34,0,.51,0,2.09-.07,3.98-1.13,5.47-3.06.12-.16.22-.3.31-.43.16-.23.32-.48.46-.71.81-1.33,1.16-2.51,1.17-2.56.13-.46-.08-.95-.51-1.16-.41-.2-10.1-4.85-21.18-4.85h0Z"/>
            </g>
            <path class="cls-12" d="M40.69,16.83s-.31,1.08-1.08,2.34c-.19.34-.43.69-.7,1.05-3.29-.15-7.65-1.33-11.6-2.82-6.51-2.47-13.67.47-16.71,2.39-1.65,1.05-3.64,1.48-5.11,1.63-.56-.49-1.05-1.03-1.45-1.53-.95-1.21-1.43-2.3-1.43-2.3,15.09-11.92,38.07-.75,38.07-.75Z"/>
            <g>
              <path class="cls-41" d="M5.43,19.77c-.42,0-.84-.04-1.24-.11-.67-.87-1.09-1.66-1.26-2,4.55-3.53,10.27-5.33,17.01-5.33,9.96,0,19.03,3.98,20.45,4.64-.12.35-.41,1.12-.92,1.98-.22.03-.45.04-.69.04-1.84,0-4.26-.81-6.82-1.66-3-1-6.41-2.14-9.48-2.14h-.19c-4.89.07-8.19,1.54-11.1,2.84-1.14.51-2.23.99-3.3,1.34-.83.27-1.66.4-2.46.4Z"/>
              <path class="cls-1" d="M19.94,12.08v.49c9.52,0,18.22,3.66,20.14,4.52-.14.37-.39.96-.77,1.62-.17.02-.35.03-.54.03-1.8,0-4.2-.8-6.74-1.65-3.02-1.01-6.45-2.15-9.56-2.15h-.2c-4.94.07-8.27,1.55-11.2,2.86-1.14.51-2.21.99-3.27,1.33-.81.26-1.61.39-2.38.39-.37,0-.74-.03-1.1-.09-.53-.69-.89-1.33-1.08-1.71,4.48-3.42,10.1-5.15,16.7-5.15v-.49M19.94,12.08c-5.86,0-12.06,1.35-17.31,5.5,0,0,.48,1.08,1.43,2.3.41.08.87.14,1.37.14.75,0,1.6-.11,2.53-.42,3.78-1.21,7.55-4.07,14.33-4.17.06,0,.13,0,.19,0,5.62,0,12.21,3.8,16.3,3.8.29,0,.58-.02.84-.06.77-1.25,1.08-2.34,1.08-2.34,0,0-9.77-4.75-20.75-4.75h0Z"/>
            </g>
            <path class="cls-8" d="M39.2,19.83c-.09.13-.18.26-.28.39-1.03,1.34-2.57,2.6-4.72,2.67-4.73.15-7.74-1.97-12.79-1.84-5.06.13-4.43,1.26-10.2,2.12-2.42.35-4.32-.56-5.71-1.76-.55-.48-1.05-1.03-1.44-1.53-.26-.34-.49-.67-.68-.97,1.36,1.6,3.86,3.61,7.73,3.12,6.25-.78,7.5-3.58,17.74-.85,4.93,1.31,8.24.17,10.35-1.37Z"/>
          </g>
          <g>
            <g>
              <path class="cls-33" d="M5.25,18.26c-.7,0-1.34-.12-1.95-.36-.42-.17-.78-.36-1.12-.58-.13-.08-.27-.16-.38-.27-.11-.08-.24-.2-.37-.32-1.99-1.93-.95-4.6-.55-5.43,0-.01,0-.02,0-.03.04-.12.09-.25.17-.37C1.85,9.48,8.67,1.39,19.64.29c.31-.03.64-.05.99-.05,5.79,0,16.71,4.2,20.38,8.65.95,1.15,1.38,2.26,1.27,3.3l-.06.38c-.17,1.35-.44,2.41-.81,3.18,0,.02-.03.08-.05.13-.66,1.19-1.56,1.7-2.88,1.7-.86,0-1.9-.2-3.48-.68-1.06-.33-2.07-.73-3.05-1.12-2.46-.98-5-2-8.71-2-1.11,0-2.3.09-3.53.28-3.33.49-6.06,1.58-8.48,2.53-2.25.89-4.2,1.66-5.98,1.66h0Z"/>
              <path class="cls-24" d="M20.63.49c5.7,0,16.56,4.16,20.19,8.57.87,1.05,1.32,2.09,1.22,3.12-.02.15-.04.28-.06.41-.17,1.33-.43,2.34-.79,3.06-.02.07-.06.15-.08.21-.6,1.07-1.45,1.49-2.63,1.49-.92,0-2.04-.26-3.41-.67-3.67-1.13-6.57-3.14-11.84-3.14-1.08,0-2.26.08-3.57.28-6.51.97-10.84,4.19-14.42,4.19-.64,0-1.26-.1-1.86-.34-.41-.17-.77-.35-1.08-.56-.12-.07-.25-.15-.35-.24-.12-.09-.25-.21-.37-.32-1.63-1.59-1.14-3.83-.48-5.18v-.02c.04-.11.08-.22.14-.32C2.13,9.47,9,1.6,19.66.54c.3-.03.62-.05.96-.05M20.63,0h0c-.36,0-.7.02-1.01.05C8.54,1.15,1.64,9.34.83,10.8c-.07.11-.13.26-.18.39,0,.01,0,.03-.01.04-.43.9-1.47,3.66.61,5.68.15.13.28.26.42.36.1.1.26.19.39.27.33.22.71.42,1.14.59.64.25,1.31.38,2.04.38,1.82,0,3.79-.78,6.07-1.68,2.4-.95,5.12-2.03,8.42-2.52,1.22-.18,2.4-.27,3.5-.27,3.66,0,6.18,1.01,8.62,1.98.98.39,2,.8,3.07,1.13,1.61.48,2.67.69,3.55.69,1.42,0,2.39-.55,3.06-1.74.01-.02.02-.05.03-.07.03-.08.06-.14.08-.19.38-.79.65-1.86.82-3.18.02-.13.04-.26.06-.4.11-1.13-.33-2.3-1.33-3.5C37.49,4.24,26.47,0,20.63,0h0Z"/>
            </g>
            <path class="cls-40" d="M41.19,15.65c-.02.07-.06.15-.08.21C19.42.33,5.58,13.37,2.32,17.11c-.12-.07-.25-.15-.35-.24,1.59-2.86,7.51-9.47,18.24-10.03,10.5-.52,18.46,6.33,20.99,8.82Z"/>
            <path class="cls-8" d="M42.04,12.18c-.02.15-.04.28-.06.41-.58-1.53-1.78-3.14-3.99-4.67C30.27,2.55,19.6-1.29,9.06,5.23,1.14,10.14,1.12,14.62,1.59,16.55c-1.78-1.74-1.03-4.24-.33-5.51C2.13,9.47,9,1.6,19.66.54c6.53-.65,22.99,6.07,22.37,11.64Z"/>
            <path class="cls-10" d="M42.04,12.18c-.02.15-.04.28-.06.41-.17,1.33-.43,2.34-.79,3.06-.02.07-.06.15-.08.21-1.08,1.91-2.94,1.76-6.04.82-4.42-1.36-7.73-4-15.4-2.86-7.67,1.14-12.32,5.42-16.27,3.85-.41-.17-.77-.36-1.08-.56-.12-.07-.25-.15-.35-.24-.12-.09-.25-.21-.37-.32-1.63-1.59-1.14-3.83-.48-5.18.31,1.23,1.3,2.24,3.97,1.68,5.75-1.23,7.77-5.04,17.24-5.19,9.22-.17,16.93,9.77,18.48,1.2.87,1.05,1.32,2.09,1.22,3.12Z"/>
          </g>
          <g>
            <g>
              <path class="cls-45" d="M18.54,15.68s-.34-.1-.81-.3c-1.25-.54-3.35-1.75-3.43-3.78-.03-.69.06-1.31.26-1.85.76-2.08,3.15-3.12,7.53-3.28.15,0,.3,0,.45,0,3.09,0,5.58,1.21,6.49,3.15.32.68.44,1.43.35,2.22-.31,2.79-3.41,3.78-4.35,4.02-.12.03-.19.04-.19.04,0,0-6.29-.2-6.29-.2Z"/>
              <path class="cls-35" d="M22.54,6.52c3.13,0,5.54,1.22,6.43,3.11.31.65.44,1.39.35,2.18-.31,2.79-3.51,3.76-4.3,3.96h0c-.11.03-.18.04-.18.04l-6.29-.2s-.32-.1-.78-.3c0,0,0,0,0,0-1.19-.51-3.3-1.71-3.39-3.72-.03-.7.06-1.3.25-1.83.86-2.37,3.82-3.1,7.47-3.24.15,0,.3,0,.45,0M22.54,6.38h0c-.15,0-.3,0-.45,0-2.78.1-6.59.56-7.6,3.33-.2.55-.29,1.18-.26,1.88.09,2.07,2.21,3.3,3.47,3.84,0,0,0,0,0,0,.46.2.78.3.8.3.01,0,.02,0,.04,0l6.29.2s.1-.02.22-.05c.95-.24,4.09-1.24,4.41-4.08.09-.8-.03-1.56-.36-2.26-.93-1.97-3.44-3.19-6.56-3.19h0Z"/>
            </g>
            <g>
              <g>
                <g>
                  <path class="cls-34" d="M23.96,12.21c-.37,0-.6-.12-.61-.12l-.57-.72s.01,0,.03,0c.07,0,.24.07.47.07.11,0,.22-.02.32-.05.04-.01.07-.02.1-.04.3-.15.24-.47.13-.71-.02-.05-.04-.1-.07-.15-.22-.4.51-1.12.54-1.15l-.05.28c.05-.1.27-.31.61-.31.05,0,.1,0,.16.01-.04.06-.14.12-.18.19.03-.01.08-.02.15-.02.2,0,.52.09.86.53-.01.02-.04.02-.08.02-.05,0-.11,0-.18,0-.27.02-.37.1-.38.25,0,.14.03.27.07.41.11.42.24.95-.41,1.3-.3.16-.6.24-.91.24Z"/>
                  <path class="cls-35" d="M24.87,9.33s.1,0,.15.01c0,0-.19.08-.22.2,0,0,.07-.03.19-.03.19,0,.5.08.84.52,0,0-.11-.03-.24-.03-.02,0-.03,0-.05,0,0,0-.01,0-.02,0,0,0,0,0,0,0-.16.01-.32.07-.33.27,0,0,0,.02,0,.03,0,.44.53,1.21-.33,1.66-.34.18-.65.23-.9.23-.37,0-.6-.12-.6-.12l-.56-.71s.19.11.47.11c.1,0,.21-.01.33-.05.04-.01.07-.03.11-.04.28-.14.28-.44.14-.75-.02-.05-.04-.1-.07-.15-.21-.39.53-1.12.53-1.12l-.1.31s.22-.34.65-.34M24.32,9.35h0M24.87,9.28c-.24,0-.41.09-.53.19l.03-.08s0-.01,0-.02c0-.03-.02-.05-.05-.05h0s-.03,0-.04.02c-.04.04-.77.77-.54,1.18.03.05.05.09.07.14.1.23.16.54-.12.68-.03.02-.06.03-.1.04-.1.03-.21.05-.32.05-.26,0-.45-.1-.45-.1,0,0-.02,0-.02,0-.01,0-.03,0-.04.02-.02.02-.02.05,0,.07l.56.71s.01.01.02.01c0,0,.25.13.62.13.31,0,.62-.08.92-.24.67-.35.53-.92.42-1.33-.04-.14-.07-.27-.07-.38,0-.01,0-.02,0-.03,0-.05.01-.2.29-.23,0,0,.02,0,.02,0,0,0,0,0,0,0,.02,0,.03,0,.05,0,.12,0,.22.03.22.03,0,0,0,0,.01,0,.02,0,.03,0,.04-.02.01-.02.01-.04,0-.06-.35-.44-.68-.54-.88-.54-.02,0-.05,0-.07,0,.04-.03.08-.05.11-.07.02,0,.03-.03.03-.05s-.02-.04-.04-.05c-.06,0-.11-.01-.16-.01h0Z"/>
                </g>
                <path class="cls-2" d="M25.84,10.02s-.14-.04-.29-.03c-.01,0-.02,0-.03,0-.11,0-.2.02-.29.07-.29.19-.42.66-.42.66-.2-.23-.33-.56-.33-.56-.2.14-.07.59-.05.63-.23-.18-.35-.53-.35-.53-.11.1-.18.23-.23.35-.02-.05-.04-.1-.07-.15-.03-.06-.04-.13-.04-.2h0c.04-.4.57-.92.57-.92l-.1.31s.27-.42.8-.32c0,0-.19.08-.22.2,0,0,.47-.22,1.03.48Z"/>
                <path class="cls-9" d="M25.84,10.02s-.14-.04-.29-.03c-.01,0-.02,0-.03,0-.11,0-.2.02-.29.07.11-.16.42-.15.42-.15-.47-.52-.91-.34-.91-.34l.09-.2c-.41.07-.63.32-.63.32l-.03-.11c-.16.14-.35.51-.42.68.04-.4.57-.92.57-.92l-.1.31s.27-.42.8-.32c0,0-.19.08-.22.2,0,0,.47-.22,1.03.48Z"/>
                <path class="cls-14" d="M24.86,11.96c-.85.45-1.5.11-1.5.11l-.56-.71s.35.19.81.06c.04-.01.07-.03.11-.04.4.19.6-.38.6-.38-.14.42.11.54.11.54-.08-.86.32-1.03.32-1.03-.12.44.08.62.08.62-.02-.71.26-.83.35-.85,0,0,0,.02,0,.03,0,.44.53,1.21-.33,1.66Z"/>
              </g>
              <g>
                <g>
                  <g>
                    <path class="cls-23" d="M22.11,9.73l-.53-.28s-.05-.28-.02-.49c.02-.1.05-.17.09-.22,0,0,.1-.05.1-.05.17.01.26.1.32.24.06.15.1.32.1.51,0,.09,0,.19-.02.28,0,0,0,.02-.02.02,0,0,0,0-.01,0s0,0-.01,0Z"/>
                    <path class="cls-35" d="M21.8,8.71s.02,0,.03,0c.09.01.17.1.23.22,0,0,0,0,0,0,.06.13.09.31.09.49,0,.09,0,.19-.02.28l-.29-.16-.03-.02-.2-.11s-.04-.25,0-.46c.01-.08.04-.16.08-.2,0,0,.01-.01.02-.02,0,0,.02-.01.02-.02,0,0,.01,0,.02,0,0,0,0,0,.01,0,0,0,.01,0,.02,0,0,0,.01,0,.02,0M21.8,8.65s-.02,0-.03,0c0,0-.02,0-.03,0h0s0,0-.01,0c-.01,0-.02,0-.03.01,0,0-.02.01-.03.02,0,0-.02.01-.02.02-.05.05-.08.13-.1.23-.04.21,0,.47,0,.48,0,.02.01.03.03.04l.2.11.03.02.29.16s.02,0,.03,0c0,0,.02,0,.02,0,.02,0,.03-.02.03-.04.02-.09.02-.18.02-.29,0-.19-.04-.37-.1-.51-.07-.16-.16-.25-.27-.26,0,0-.02,0-.03,0h0Z"/>
                  </g>
                  <path class="cls-22" d="M22.19,9.66h0c0,.05,0,.11-.02.15h-.03s-.35-.15-.35-.15l-.03-.02-.25-.17s0-.15.02-.32c0-.03,0-.06.01-.09.02-.11.05-.22.11-.29,0,0,0-.01.02-.02,0,0,.01-.01.02-.02,0,0,.02-.01.02-.02,0,0,.01,0,.02,0,0,0,0,0,.01,0,0,0,.01,0,.02,0,0,0,.01,0,.02,0,0,0,.02,0,.03,0,.09.02.16.1.23.22,0,0,0,0,0,0,.03.06.06.13.08.21.04.16.07.34.06.5Z"/>
                </g>
                <path class="cls-37" d="M21.83,9.55l-.03-.02c0-.21,0-.6.09-.59.09.01,0,.41-.05.61Z"/>
                <path class="cls-9" d="M22.19,9.66c0-.07-.02-.15-.04-.23-.08-.31-.23-.64-.36-.64-.08,0-.14.08-.19.17-.02.03-.03.07-.05.1.02-.12.06-.24.13-.31,0,0,.01-.01.02-.02,0,0,.02-.01.02-.02,0,0,.01,0,.02,0,0,0,0,0,.01,0,0,0,.01,0,.02,0,0,0,.01,0,.02,0,0,0,.02,0,.03,0,.09.01.17.1.23.22,0,0,0,0,0,0,.09.19.15.47.14.72Z"/>
                <path class="cls-14" d="M22.19,9.66h0c0,.05,0,.11-.02.15h-.03s-.03-.09-.06-.13c0,0,0,0,0,0-.13-.2-.4-.42-.51-.5-.01-.01-.02-.02-.03-.02.01,0,.02.02.03.02.28.2.46.08.54-.02,0,0,0-.01.01-.02.04.16.07.34.06.5Z"/>
              </g>
              <g>
                <path class="cls-21" d="M21.57,11.54l-.04-.33-.02-.64c-.31-.04-.5-.13-.51-.14.02-.03.04-.04.06-.06-.03,0-.06,0-.09,0-.2,0-.32-.09-.39-.17-.09-.1-.12-.23-.1-.3.02-.12.15-.13.29-.13.09,0,.19,0,.3-.03.07-.02.15-.09.24-.18.17-.17.39-.38.73-.38.09,0,.18.02.28.05.07.02.14.05.22.09,0,0,.09.05.09.05.76.44.87,1.58.89,2.04v.16s0,.02,0,.03c0,0-.02,0-.02,0,0,0-1.91-.07-1.91-.07ZM21.59,10.09s-.09.08-.14.11c.08-.05.13-.1.14-.11Z"/>
                <path class="cls-35" d="M22.04,9.22c.08,0,.17.01.27.04.07.02.14.05.21.09.03.01.06.03.09.05.75.44.86,1.59.87,2.01,0,.1,0,.16,0,.16l-1.91-.07v-.3s-.03-.64-.03-.64c.03,0,.06.01.09.02.03,0,.06,0,.08,0,.19,0,.38-.06.38-.06-.07,0-.14.01-.21.02-.04,0-.07,0-.1,0-.48,0-.78-.15-.78-.15.05,0,.09-.02.13-.03.31-.08.45-.24.47-.26-.02,0-.03.02-.05.03,0,0,0,0,0,0-.25.14-.44.2-.59.2-.37,0-.47-.32-.46-.43.03-.15.28-.07.57-.13.22-.05.45-.56.96-.56M22.04,9.15c-.35,0-.58.22-.75.39-.08.08-.16.16-.22.17-.1.02-.2.03-.29.03-.15,0-.3,0-.33.16-.01.08.02.22.11.33.07.08.19.17.39.18,0,.02.02.04.04.05,0,0,.19.1.49.14l.02.61v.3s.04.07.08.07l1.91.07s0,0,0,0c.02,0,.04,0,.05-.02.01-.01.02-.03.02-.05,0,0,0-.06,0-.16-.02-.47-.13-1.62-.9-2.07-.02-.01-.04-.02-.06-.04h-.02c-.08-.05-.15-.08-.22-.11-.1-.03-.2-.05-.29-.05h0Z"/>
              </g>
              <ellipse class="cls-37" cx="21.68" cy="9.75" rx=".19" ry=".07"/>
              <path class="cls-9" d="M21.02,10.4s.09-.02.13-.03c.13.06.6.23,1.01.11-.02,0-.13.04-.26.07-.54.02-.88-.15-.88-.15Z"/>
              <path class="cls-9" d="M21.56,10.14c-.85.5-1.08-.08-1.05-.23.03-.15.28-.07.57-.13.25-.06.53-.74,1.23-.51-.23,0-.52.05-.72.18-.36.24-.21.37-.54.43-.33.06-.54-.03-.4.18.14.21.38.32,1.02,0,0,0-.04.04-.11.09,0,0,0,0,0,0Z"/>
              <path class="cls-9" d="M23.48,11.57l-1.91-.07-.03-.93s.06.01.09.02c-.02.13-.11,1.23,1.84.83,0,.1,0,.16,0,.16Z"/>
              <path class="cls-14" d="M23.48,11.57l-1.91-.07v-.3c1.86-.02,1.24-1.36.95-1.85.03.01.06.03.09.05.75.44.86,1.59.87,2.01,0,.1,0,.16,0,.16Z"/>
              <g>
                <g>
                  <g>
                    <path class="cls-19" d="M22.76,9.9l-.67-.36s-.06-.36-.02-.62c.02-.12.06-.22.11-.28,0,0,.1-.06.1-.06,0,0,.11,0,.11,0,.12.02.23.12.31.3.08.18.12.41.13.64,0,.12,0,.24-.03.35,0,.01,0,.02-.02.03,0,0-.01,0-.02,0,0,0-.01,0-.02,0Z"/>
                    <path class="cls-35" d="M22.36,8.61s.02,0,.03,0c.12.02.22.12.29.28,0,0,0,0,0,0,.07.17.12.39.12.62,0,.12,0,.23-.03.35l-.37-.2-.04-.02-.26-.14s-.05-.32,0-.58c.02-.1.05-.2.1-.26,0,0,.02-.02.03-.02,0,0,.02-.01.03-.02,0,0,.02,0,.03,0,0,0,.01,0,.02,0,0,0,.02,0,.03,0,0,0,.02,0,.02,0M22.36,8.54s-.03,0-.04,0c-.01,0-.02,0-.04,0h0s0,0-.01,0c-.01,0-.03,0-.04.02-.01,0-.03.01-.04.03,0,0-.02.02-.03.03-.06.06-.1.16-.12.3-.04.27,0,.59,0,.6,0,.02.02.04.04.05l.26.14.04.02.37.2s.02,0,.03,0c.01,0,.02,0,.03,0,.02,0,.04-.03.04-.05.02-.11.03-.23.03-.36,0-.24-.05-.47-.12-.65-.09-.2-.21-.31-.35-.33,0,0-.03,0-.04,0h0Z"/>
                  </g>
                  <path class="cls-20" d="M22.86,9.81h0c0,.07,0,.13-.02.2h-.03s-.44-.18-.44-.18l-.04-.02-.32-.22s0-.2.02-.41c0-.04.01-.07.02-.11.03-.14.07-.28.14-.36,0,0,.01-.02.02-.02,0,0,.02-.02.03-.02,0,0,.02-.01.03-.02,0,0,.02,0,.03,0,0,0,.01,0,.02,0,0,0,.02,0,.03,0,0,0,.02,0,.02,0,.01,0,.02,0,.03,0,.11.02.21.13.29.28,0,0,0,0,0,0,.04.08.07.17.1.27.06.2.08.43.07.64Z"/>
                </g>
                <path class="cls-37" d="M22.41,9.68l-.04-.02c0-.26,0-.76.11-.74.11.01,0,.52-.07.76Z"/>
                <path class="cls-9" d="M22.86,9.81c-.01-.09-.03-.19-.06-.29-.1-.39-.29-.81-.46-.8-.1,0-.18.11-.24.21-.02.04-.04.09-.06.13.03-.15.08-.3.16-.39,0,0,.02-.02.03-.02,0,0,.02-.01.03-.02,0,0,.02,0,.03,0,0,0,.01,0,.02,0,0,0,.02,0,.03,0,0,0,.02,0,.02,0,.01,0,.02,0,.03,0,.12.02.22.12.29.28,0,0,0,0,0,0,.12.24.19.59.17.9Z"/>
                <path class="cls-14" d="M22.86,9.81h0c0,.07,0,.13-.02.2h-.03c-.02-.06-.04-.11-.07-.16,0,0,0,0,0,0-.17-.25-.5-.53-.64-.63-.02-.01-.03-.02-.04-.03.01.01.03.02.04.03.36.25.58.1.68-.02,0,0,.01-.01.02-.02.06.2.08.43.07.64Z"/>
              </g>
            </g>
            <g>
              <g>
                <path class="cls-18" d="M21.67,12.17s-1.3-.41-2.85-.67c-.39-.06-.79-.12-1.21-.16l-.29-.57.04-.17h-.04s.04-.5.04-.5l1.38.04,3.07.91v.14s-.1.94-.1.94c0,.01,0,.02-.02.03,0,0-.01,0-.02,0,0,0,0,0-.01,0Z"/>
                <path class="cls-35" d="M17.4,10.11l1.34.07h0s3.06.91,3.06.91h0s-.01.1-.01.1l-.06.54-.05.4s-1.28-.41-2.86-.67c-.39-.06-.8-.12-1.21-.15l-.26-.55v-.05s.01-.1.01-.1l.04-.5M17.4,10.04s-.07.03-.07.07l-.04.5v.1s-.01.05-.01.05c0,.01,0,.02,0,.03l.26.55s.03.04.06.04c.38.03.79.09,1.2.15,1.56.26,2.84.67,2.85.67,0,0,.01,0,.02,0,.01,0,.03,0,.04-.01.02-.01.03-.03.03-.05l.05-.4.06-.54v-.1s0-.07-.04-.08l-3.06-.91s-.01,0-.02,0l-1.34-.07s0,0,0,0h0Z"/>
              </g>
              <g>
                <path class="cls-17" d="M26.95,12.8c-2.25-.59-4.74-.62-5.21-.62l-.13-.45-.07-.67s.05-.01.06-.02c0,0,.01,0,.02,0,.02,0,.05,0,.05,0l.13.03c1.29.25,2.41.53,3.33.83,1.5.49,1.93.86,1.95.88.01.01.02.03,0,.04,0,.01-.02.02-.03.02,0,0-.12-.03-.12-.03Z"/>
                <path class="cls-35" d="M21.57,11.05c.08.01.16.03.23.04h0c1.46.29,2.54.57,3.33.83,1.51.49,1.93.87,1.93.87-.04,0-.07-.02-.11-.03,0,0,0,0,0,0-2.27-.6-4.8-.62-5.21-.62-.04,0-.06,0-.06,0l-.04-.42-.06-.57v-.1M21.59,10.98s-.04,0-.05.02c-.02.02-.03.04-.03.06v.1s.07.57.07.57l.04.42s.03.06.07.06h.06c.47,0,2.95.03,5.19.62,0,0,0,0,0,0h0s.05.01.05.01h.05s.01.02.02.02c.03,0,.05-.01.06-.04.02-.03,0-.07-.02-.09-.02-.02-.45-.39-1.96-.88-.92-.3-2.03-.58-3.32-.83,0,0,0,0-.01,0-.07-.01-.14-.03-.21-.04,0,0-.01,0-.02,0h0Z"/>
              </g>
              <path class="cls-9" d="M27.06,12.79s-.07-.02-.11-.03c0,0,0,0,0,0-.96-.62-4.22-1.36-5.16-1.56-.1-.02-.17-.04-.21-.04-.03,0-.04,0-.04,0l-2.86-.82-1.18-.09-.14.37.04-.5,1.34.07,3.06.91h0c4.29.83,5.26,1.7,5.26,1.7Z"/>
              <path class="cls-14" d="M27.06,12.79s-.07-.02-.11-.03c0,0,0,0,0,0-2.48-.65-5.27-.62-5.27-.62,0,0-1.99-.64-4.07-.83l-.26-.55v-.05c.33.26,1.15.24,3.93.93.12.03.24.06.36.09.03,0,.06.01.09.02,2.13.48,3.04.33,3.4.18,1.51.49,1.93.87,1.93.87Z"/>
              <path class="cls-14" d="M18.82,11.47c-.39-.06-.8-.12-1.21-.15l-.26-.55v-.05s.01-.1.01-.1l.04-.5,1.34.07h0s.08,1.28.08,1.28Z"/>
              <g>
                <polygon class="cls-37" points="19.29 11.01 18.98 10.94 18.96 10.53 19.29 10.61 19.29 11.01"/>
                <polygon class="cls-37" points="19.77 11.12 19.45 11.06 19.44 10.65 19.77 10.72 19.77 11.12"/>
                <polygon class="cls-37" points="20.28 11.26 19.97 11.19 19.95 10.78 20.28 10.89 20.28 11.26"/>
                <polygon class="cls-37" points="20.78 11.37 20.47 11.3 20.46 10.94 20.78 11.04 20.78 11.37"/>
                <polygon class="cls-37" points="21.26 11.48 20.96 11.4 20.93 11.08 21.26 11.15 21.26 11.48"/>
                <polygon class="cls-37" points="22.14 11.69 21.83 11.6 21.8 11.28 22.13 11.36 22.14 11.69"/>
                <polygon class="cls-37" points="22.64 11.78 22.34 11.7 22.32 11.4 22.63 11.47 22.64 11.78"/>
                <polygon class="cls-37" points="23.12 11.88 22.83 11.8 22.8 11.49 23.11 11.56 23.12 11.88"/>
                <polygon class="cls-37" points="23.59 11.98 23.32 11.91 23.29 11.63 23.58 11.69 23.59 11.98"/>
                <polygon class="cls-37" points="24.06 12.07 23.81 12.01 23.79 11.75 24.05 11.81 24.06 12.07"/>
                <polygon class="cls-37" points="24.55 12.18 24.32 12.12 24.3 11.88 24.55 11.93 24.55 12.18"/>
                <polygon class="cls-37" points="25.02 12.25 24.84 12.2 24.83 12.02 25.01 12.06 25.02 12.25"/>
                <polygon class="cls-37" points="25.41 12.35 25.25 12.31 25.24 12.14 25.41 12.18 25.41 12.35"/>
              </g>
              <line class="cls-26" x1="23.28" y1="11.41" x2="23.28" y2="12.2"/>
              <line class="cls-27" x1="24.6" y1="11.72" x2="24.6" y2="12.37"/>
            </g>
            <g>
              <g>
                <path class="cls-7" d="M18.97,12.25c-.24,0-.43-.17-.43-.37,0-.05.01-.11.04-.16.07-.13.22-.21.38-.21.21,0,.4.14.42.32,0,.25-.19.42-.42.42Z"/>
                <path class="cls-42" d="M18.97,11.52c.21,0,.38.13.41.31,0,.01,0,.03,0,.05,0,.2-.18.36-.41.36s-.41-.16-.41-.36c0-.05.02-.11.04-.15.06-.12.21-.2.37-.2M18.97,11.48c-.17,0-.33.09-.4.22-.03.05-.04.11-.04.17,0,.22.2.39.44.39s.44-.18.44-.39c0-.02,0-.03,0-.05-.03-.2-.22-.34-.44-.34h0Z"/>
              </g>
              <g class="cls-13">
                <path class="cls-32" d="M18.97,11.55c.21,0,.37.14.37.32s-.17.32-.37.32-.37-.14-.37-.32.17-.32.37-.32M18.97,11.52c-.23,0-.41.16-.41.36s.18.36.41.36.41-.16.41-.36-.18-.36-.41-.36h0Z"/>
              </g>
              <ellipse class="cls-42" cx="18.97" cy="11.87" rx=".2" ry=".17"/>
              <g>
                <path class="cls-6" d="M19.74,12.22c-.19,0-.34-.13-.34-.3.04-.2.18-.3.34-.3.18,0,.32.12.34.27,0,.2-.15.34-.34.34Z"/>
                <path class="cls-42" d="M19.74,11.64c.17,0,.31.11.33.25,0,.01,0,.02,0,.03,0,.16-.15.28-.33.28s-.33-.13-.33-.28c0-.02,0-.03,0-.05.03-.13.16-.23.32-.23M19.74,11.6c-.17,0-.32.11-.36.26,0,.02,0,.04,0,.06,0,.18.16.32.36.32s.36-.14.36-.32c0-.01,0-.02,0-.04-.02-.16-.18-.28-.36-.28h0Z"/>
              </g>
              <g class="cls-13">
                <path class="cls-32" d="M19.74,11.67c.16,0,.29.11.29.25s-.13.25-.29.25-.29-.11-.29-.25.13-.25.29-.25M19.74,11.64c-.18,0-.33.13-.33.28s.15.28.33.28.33-.13.33-.28-.15-.28-.33-.28h0Z"/>
              </g>
              <ellipse class="cls-42" cx="19.74" cy="11.92" rx=".17" ry=".15"/>
              <g>
                <g>
                  <path class="cls-5" d="M20.36,12.21c-.15,0-.28-.11-.28-.24.04-.17.15-.24.28-.24.15,0,.27.1.27.23,0,.15-.12.26-.27.26Z"/>
                  <path class="cls-42" d="M20.36,11.74c.14,0,.25.09.26.21,0,0,0,0,0,.01,0,.12-.12.22-.26.22s-.26-.1-.26-.22c0-.02,0-.04.01-.06.03-.1.13-.16.25-.16M20.36,11.71c-.13,0-.25.08-.28.19,0,.02-.01.04-.01.07,0,.14.13.26.29.26s.29-.12.29-.26c0,0,0-.01,0-.02-.01-.13-.14-.24-.29-.24h0Z"/>
                </g>
                <g class="cls-13">
                  <path class="cls-32" d="M20.36,11.77c.12,0,.22.08.23.18h0s0,.01,0,.01c0,.11-.1.2-.23.2s-.23-.09-.23-.2c0-.02,0-.03,0-.05.03-.09.12-.14.22-.14M20.36,11.74c-.12,0-.22.07-.25.16,0,.02-.01.04-.01.06,0,.12.12.22.26.22s.26-.1.26-.22c0,0,0,0,0-.01,0-.12-.12-.21-.26-.21h0Z"/>
                </g>
                <ellipse class="cls-42" cx="20.36" cy="11.97" rx=".13" ry=".11"/>
              </g>
              <g>
                <path class="cls-4" d="M20.87,12.2c-.12,0-.22-.09-.22-.19,0-.12.11-.19.22-.19.12,0,.22.09.22.19-.04.14-.12.19-.22.19Z"/>
                <path class="cls-42" d="M20.87,11.83c.11,0,.2.08.2.18,0,.02,0,.04-.01.05,0,0,0,0,0,0,0,0,0,0,0,0-.02.07-.1.12-.19.12-.11,0-.2-.08-.2-.18,0,0,0,0,0-.01,0-.09.09-.16.2-.16M20.87,11.79c-.12,0-.23.09-.24.19,0,0,0,.01,0,.02,0,.12.11.21.24.21.1,0,.19-.05.22-.14,0,0,0,0,0,0h0s.01-.04.01-.07c0-.12-.11-.21-.24-.21h0Z"/>
              </g>
              <g class="cls-13">
                <path class="cls-32" d="M20.87,11.84c.1,0,.19.07.19.16s-.08.16-.19.16-.19-.07-.19-.16.08-.16.19-.16M20.87,11.83c-.11,0-.2.08-.2.18s.09.18.2.18.2-.08.2-.18-.09-.18-.2-.18h0Z"/>
              </g>
              <ellipse class="cls-42" cx="20.87" cy="12" rx=".08" ry=".07"/>
              <path class="cls-15" d="M19.38,11.83s0,.03,0,.05c0,.2-.18.36-.41.36s-.41-.16-.41-.36c0-.05.02-.11.04-.15.12.17.37.39.77.11Z"/>
              <path class="cls-15" d="M20.07,11.89s0,.02,0,.03c0,.16-.15.28-.33.28s-.33-.13-.33-.28c0-.02,0-.03,0-.05.08.09.31.26.65.02Z"/>
              <path class="cls-15" d="M20.62,11.95s0,0,0,.01c0,.12-.12.22-.26.22s-.26-.1-.26-.22c0-.02,0-.04.01-.06.02.03.07.06.12.09.06.03.14.05.24.02.04-.01.09-.03.14-.07Z"/>
              <path class="cls-15" d="M21.06,12.06c-.02.07-.1.12-.19.12-.11,0-.2-.08-.2-.18,0,0,0,0,0-.01.06.06.18.14.39.07Z"/>
            </g>
            <g>
              <g>
                <path class="cls-38" d="M16.91,12.43s-.02,0-.02-.01c0,0,0-.03,0-.03,0-.06,0-.13.01-.22.06-.34.25-.75.26-.76l1.68.05c-.23.1-.45.66-.51.83,0,0-1.41.15-1.41.15Z"/>
                <path class="cls-42" d="M17.18,11.42l1.49.05h.17c-.26.07-.49.69-.53.81h0s0,.02,0,.02l-1.39.12s0-.02,0-.03h0c0-.06,0-.14.01-.21.06-.34.26-.75.26-.75M17.18,11.38s-.03,0-.03.02c0,.02-.2.43-.26.76-.01.09-.02.16-.01.22,0,0,0,.02,0,.03,0,.02.02.03.04.03,0,0,0,0,0,0l1.39-.12s.03-.01.03-.03c0,0,0,0,0-.02,0,0,0,0,0,0,.16-.45.35-.74.5-.78.02,0,.03-.02.03-.04,0-.02-.02-.03-.03-.03h-.17s-1.49-.06-1.49-.06h0Z"/>
              </g>
              <path class="cls-29" d="M17.01,12.41s.13-.72.38-.98"/>
              <path class="cls-29" d="M17.55,11.43c-.23.27-.35.91-.36.96h0"/>
              <path class="cls-29" d="M17.35,12.38c.02-.1.14-.68.35-.94"/>
              <path class="cls-29" d="M17.51,12.36c.03-.14.14-.68.35-.92"/>
              <path class="cls-29" d="M17.68,12.35c.04-.18.15-.68.35-.9"/>
              <path class="cls-29" d="M17.85,12.33c.04-.19.15-.66.35-.88"/>
              <path class="cls-29" d="M18.01,12.32c.04-.2.15-.65.34-.86"/>
              <path class="cls-29" d="M18.19,12.3c.04-.2.15-.63.33-.84"/>
              <path class="cls-9" d="M18.84,11.47c-.26.07-.49.69-.53.8-.03-.23.28-.73.28-.73l-1.36-.04c-.13.11-.27.67-.32.87-.03-.34.27-.97.27-.97l1.66.06Z"/>
              <path class="cls-14" d="M18.84,11.47c-.26.07-.49.69-.53.8h0s0,.02,0,.02l-1.39.12s0-.02,0-.03h0c0-.06,0-.14.01-.21,1.05.24,1.61-.49,1.75-.7h.17Z"/>
            </g>
            <ellipse class="cls-35" cx="17.83" cy="10.14" rx=".15" ry=".39"/>
            <g>
              <g>
                <path class="cls-39" d="M18.03,9.91s-.1,0-.15-.02c-.14-.14-.23-.27-.2-.39.02-.08.08-.13.19-.17-.02-.01-.05-.17.03-.27.04-.05.11-.08.2-.08,0,0,0,0,.01,0,.02,0,0-.12.08-.23.08-.1.21-.15.4-.15.05,0,.11,0,.18.01-.03-.04.03-.18.19-.18.06,0,.14.02.22.06-.01-.03.12-.19.31-.19.13,0,.26.08.38.25-.04-.08.05-.25.25-.25.08,0,.17.03.27.07,0-.02.14-.14.3-.14.07,0,.13.02.18.07.1.1.11.22.03.34,0,0-.07.08-.07.08.04.11.05.32-.13.4-.05.03-.11.04-.16.04-.08,0-.14-.03-.18-.05.01.04,0,.11-.03.16-.03.04-.07.06-.12.07h0c-.08,0-.14-.03-.17-.06,0,.03-.02.06-.04.09-.04.05-.1.08-.18.09h0c-.18,0-.28-.09-.32-.16,0,.08-.1.24-.3.28h-.01c-.18,0-.27-.1-.32-.17,0,.08-.04.19-.16.2h0c-.13,0-.22-.09-.26-.13.01.1-.09.42-.4.42Z"/>
                <path class="cls-35" d="M20.7,8.28c.05,0,.11.02.16.06.11.11.07.22.03.29-.03.05-.06.08-.06.08,0,0,0,.02.01.06.02.09.02.27-.13.34-.05.03-.1.03-.15.03-.13,0-.21-.08-.21-.08,0,0,.04.23-.14.26-.01,0-.02,0-.03,0-.15,0-.17-.14-.17-.14h0s.03.24-.21.26c-.01,0-.02,0-.03,0-.21,0-.27-.18-.27-.18,0,0-.08.25-.32.3-.02,0-.04,0-.06,0-.2,0-.28-.24-.28-.24,0,0,0,.24-.15.26,0,0-.01,0-.02,0-.14,0-.23-.14-.23-.14,0,0-.07.43-.41.43-.04,0-.09,0-.14-.02,0,0-.01-.01-.03-.03,0,0,0,0,0,0h0c-.09-.1-.28-.35.04-.46,0,0-.08-.35.21-.35.02,0,.05,0,.07,0,0,0-.1-.37.42-.37.05,0,.11,0,.17.01,0,0,.02-.18.2-.18.05,0,.12.02.21.06,0,0,.13-.19.32-.19.1,0,.23.06.35.24,0,0,.05-.24.28-.24.07,0,.15.02.26.07,0,0,.16-.14.31-.14M20.7,8.21h0c-.13,0-.26.08-.32.13-.09-.04-.17-.06-.25-.06-.15,0-.25.08-.3.17-.11-.11-.22-.17-.33-.17-.16,0-.28.11-.34.17-.07-.03-.13-.04-.19-.04-.14,0-.22.09-.25.17-.04,0-.08,0-.12,0-.2,0-.35.05-.43.16-.05.07-.07.15-.07.21-.12,0-.18.05-.22.1-.07.09-.07.2-.06.28-.09.04-.14.1-.16.18-.03.14.07.29.15.37,0,0,0,0,.01.01.02.02.04.04.04.04,0,0,.02.01.03.02.05.02.11.02.16.02.24,0,.38-.19.44-.35.05.04.11.07.19.07,0,0,.02,0,.02,0,.09,0,.14-.07.18-.14.05.06.13.12.25.12.02,0,.05,0,.07,0,.17-.03.26-.14.32-.23.05.05.14.11.26.11.01,0,.03,0,.04,0,.09,0,.16-.04.21-.1.01-.02.02-.03.03-.05.03.02.08.03.13.03.01,0,.02,0,.04,0,.06,0,.11-.04.15-.08.03-.04.04-.08.05-.12.04.02.09.03.14.03.06,0,.12-.01.18-.04.14-.07.2-.22.17-.42,0,0,0-.02,0-.02.01-.02.03-.04.05-.06.09-.13.07-.27-.04-.38-.06-.06-.13-.08-.21-.08h0Z"/>
              </g>
              <path class="cls-9" d="M20.88,8.64c.03-.47-.45-.15-.45-.15-.45-.19-.58.16-.58.16-.39-.42-.65-.03-.65-.03-.39-.2-.41.1-.41.1-.61-.1-.58.37-.58.37-.39-.1-.25.33-.25.33-.29.03-.18.29-.11.4-.09-.1-.28-.35.04-.46,0,0-.09-.4.28-.34,0,0-.12-.45.6-.36,0,0,.04-.3.41-.11,0,0,.31-.46.67.04,0,0,.08-.39.54-.16,0,0,.29-.25.47-.07.11.11.07.22.03.29Z"/>
              <path class="cls-11" d="M20.7,9.11c-.21.1-.36-.04-.36-.04,0,0,.04.23-.14.26-.18.02-.2-.14-.2-.14,0,0,.03.24-.21.26-.24.02-.31-.18-.31-.18,0,0-.08.25-.32.3-.25.05-.33-.23-.33-.23,0,0,0,.24-.15.26-.15.01-.24-.14-.24-.14,0,0-.09.54-.55.4,0,0-.01-.01-.03-.03.43.05.5-.55.5-.55,0,0,.11.15.25.16.14,0,.23-.29.23-.29,0,0,.02.21.29.25.27.05.35-.34.35-.34,0,0,.06.22.28.25.2.03.2-.24.2-.29,0,.03.01.17.2.15.21-.02.11-.27.11-.27.3.22.49,0,.56-.13.02.09.02.27-.13.34Z"/>
            </g>
            <path class="cls-31" d="M16.5,12.66s5.43-1.22,10.71.24"/>
            <line class="cls-30" x1="17.11" y1="14.38" x2="17.89" y2="14.35"/>
            <line class="cls-30" x1="25.57" y1="14.38" x2="26.36" y2="14.35"/>
            <polyline class="cls-28" points="18.17 14.5 18.44 13.91 18.73 14.48"/>
            <line class="cls-28" x1="18.28" y1="14.26" x2="18.57" y2="14.24"/>
            <path class="cls-28" d="M18.99,13.9v.53s.48.07.49-.29-.49-.24-.49-.24Z"/>
            <polyline class="cls-28" points="19.67 13.79 19.96 14.37 20.22 13.79"/>
            <polyline class="cls-28" points="20.92 13.77 20.47 13.77 20.47 14.34 20.95 14.34"/>
            <line class="cls-28" x1="20.47" y1="14.02" x2="20.82" y2="14.02"/>
            <polyline class="cls-28" points="24.52 13.84 24.09 13.84 24.09 14.37 24.54 14.37"/>
            <line class="cls-28" x1="24.09" y1="14.08" x2="24.42" y2="14.08"/>
            <polyline class="cls-28" points="21.2 14.34 21.17 13.73 21.65 14.34 21.64 13.72"/>
            <line class="cls-25" x1="21.87" y1="13.79" x2="22.44" y2="13.79"/>
            <line class="cls-28" x1="22.15" y1="13.81" x2="22.15" y2="14.38"/>
            <path class="cls-28" d="M22.63,13.77s-.16.58.23.57.21-.59.21-.59"/>
            <path class="cls-28" d="M23.38,14.34v-.56s.43-.08.45.15-.41.13-.41.13c0,0,.4.03.4.32"/>
            <path class="cls-28" d="M25.21,13.99s-.39-.18-.43,0,.52.19.43.41c-.07.16-.38.09-.47-.03"/>
            <g>
              <g>
                <path class="cls-3" d="M17.97,11.47c-.37,0-.66-.26-.66-.58s.3-.58.66-.58.66.26.66.58-.3.58-.66.58Z"/>
                <path class="cls-35" d="M17.97,10.34c.35,0,.63.24.63.55s-.28.55-.63.55-.63-.24-.63-.55.28-.55.63-.55M17.97,10.27c-.38,0-.7.28-.7.62s.31.62.7.62.7-.28.7-.62-.31-.62-.7-.62h0Z"/>
              </g>
              <ellipse class="cls-35" cx="17.93" cy="10.89" rx=".26" ry=".23"/>
            </g>
            <path class="cls-9" d="M29.31,11.8c-.31,2.79-3.51,3.76-4.3,3.96,2.43-1.09,4.83-2.94,3.42-5.82-2.55-5.2-12.69-2.94-13.49.33-.6,2.47,1.67,4.29,2.81,5.04-1.19-.51-3.3-1.71-3.39-3.72-.16-3.85,3.27-4.9,7.72-5.06,4.45-.16,7.58,2.09,7.22,5.28Z"/>
            <path class="cls-16" d="M29.31,11.8c-.31,2.79-3.51,3.76-4.3,3.96h0c-.11.03-.18.04-.18.04l-6.29-.2s-.32-.1-.78-.3c0,0,0,0,0,0-1.19-.51-3.3-1.71-3.39-3.72-.03-.7.06-1.3.25-1.83.53,1.24,2.15,3,7.08,2.82,5.06-.18,6.72-1.87,7.27-2.96.31.65.44,1.39.35,2.18Z"/>
            <polygon class="cls-44" points="17.47 12.79 17.47 13.09 17.01 13.09 17.01 13.39 17.35 13.35 17.35 13.59 17.01 13.59 16.99 14.08 16.66 14.08 16.66 12.99 17.47 12.79"/>
            <polygon class="cls-44" points="20.55 12.47 20.54 12.65 20.13 12.64 20.13 12.94 20.48 12.9 20.48 13.13 20.13 13.13 20.11 13.63 19.78 13.63 19.78 12.47 20.55 12.47"/>
            <polygon class="cls-44" points="21.54 12.47 21.54 12.65 21.12 12.64 21.12 12.94 21.47 12.9 21.47 13.13 21.12 13.13 21.1 13.63 20.77 13.63 20.77 12.47 21.54 12.47"/>
            <polygon class="cls-44" points="17.68 12.71 17.68 13.86 18.55 13.71 18.52 13.44 17.99 13.54 17.99 12.71 17.68 12.71"/>
            <path class="cls-44" d="M18.57,12.61s-.09,1.04.52,1.02.49-1.05.49-1.05h-.32s.12.85-.18.8-.2-.76-.2-.76l-.31-.02Z"/>
            <path class="cls-44" d="M21.64,12.51s.27.31.29.46.05.57.05.57h.27s-.14-.72.41-1.03h-.37s-.05.32-.18.33-.15-.33-.15-.33h-.32Z"/>
            <polygon class="cls-44" points="22.93 12.51 22.93 12.75 23.23 12.73 23.25 13.54 23.45 13.54 23.45 12.74 23.85 12.73 23.85 12.52 22.93 12.51"/>
            <path class="cls-44" d="M24.74,13.63l-.22-1.07h-.39l-.39.98.29.02.03-.2h.39v.25l.3.02ZM24.13,13.16l.19-.35.07.35h-.26Z"/>
            <polygon class="cls-44" points="24.98 12.69 24.98 13.74 25.24 13.75 25.26 12.7 24.98 12.69"/>
            <polygon class="cls-44" points="25.54 12.75 25.54 13.83 26.21 13.9 26.21 13.69 25.75 13.63 25.76 12.75 25.54 12.75"/>
            <path class="cls-44" d="M26.39,13.71s-.12.34.35.38.52-.15.47-.34-.66-.4-.51-.58.42.07.42.14.21.06.19.01-.01-.2-.34-.36-.56.03-.6.21c-.07.27.67.62.54.69s-.32.12-.38-.15c0,0-.07-.05-.13,0Z"/>
          </g>
        </g>
      </g>
    </g>
  </g>
</svg>